<svg width="16" height="16" viewBox="0 0 16 16" fill="none" xmlns="http://www.w3.org/2000/svg">
<path d="M1.33337 4.11111L1.04491 3.4188C0.765427 3.53525 0.583374 3.80833 0.583374 4.11111H1.33337ZM8.00004 14.6667L7.71158 15.359C7.89619 15.4359 8.10389 15.4359 8.2885 15.359L8.00004 14.6667ZM14.6667 4.11111H15.4167C15.4167 3.80833 15.2347 3.53525 14.9552 3.4188L14.6667 4.11111ZM4.66671 5.49999L4.37825 6.1923L4.66671 5.49999ZM14.2565 12.0598L13.968 11.3675L14.2565 12.0598ZM1.74363 12.0598L2.03209 11.3675L1.74363 12.0598ZM2.08337 11.4444V4.11111H0.583374V11.4444H2.08337ZM7.25004 6.88888V14.6667H8.75004V6.88888H7.25004ZM8.2885 13.9744L2.03209 11.3675L1.45517 12.7521L7.71158 15.359L8.2885 13.9744ZM8.2885 15.359L14.5449 12.7521L13.968 11.3675L7.71158 13.9744L8.2885 15.359ZM15.4167 11.4444V4.11111H13.9167V11.4444H15.4167ZM14.3782 3.4188L7.71158 6.19658L8.2885 7.58119L14.9552 4.80341L14.3782 3.4188ZM7.19876 0.854696L1.04491 3.4188L1.62184 4.80341L7.77568 2.23931L7.19876 0.854696ZM1.04491 4.80341L4.37825 6.1923L4.95517 4.80769L1.62184 3.4188L1.04491 4.80341ZM4.37825 6.1923L7.71158 7.58119L8.2885 6.19658L4.95517 4.80769L4.37825 6.1923ZM14.9552 3.4188L11.6218 2.02991L11.0449 3.41452L14.3782 4.80341L14.9552 3.4188ZM11.6218 2.02991L8.80132 0.854696L8.2244 2.23931L11.0449 3.41452L11.6218 2.02991ZM4.95517 6.1923L11.6218 3.41452L11.0449 2.02991L4.37825 4.80769L4.95517 6.1923ZM7.77568 2.23931C7.91927 2.17948 8.08081 2.17948 8.2244 2.23931L8.80132 0.854696C8.2885 0.64102 7.71158 0.641021 7.19876 0.854696L7.77568 2.23931ZM14.5449 12.7521C15.0728 12.5322 15.4167 12.0163 15.4167 11.4444H13.9167C13.9167 11.4108 13.9369 11.3805 13.968 11.3675L14.5449 12.7521ZM0.583374 11.4444C0.583374 12.0163 0.927252 12.5322 1.45517 12.7521L2.03209 11.3675C2.06315 11.3805 2.08337 11.4108 2.08337 11.4444H0.583374Z" fill="#24292E"/>
</svg>
