<svg width="16" height="16" viewBox="0 0 16 16" fill="none" xmlns="http://www.w3.org/2000/svg">
<path d="M9.15327 2.34007L10.3266 4.68674C10.4866 5.0134 10.9133 5.32674 11.2733 5.38674L13.3999 5.74007C14.7599 5.96674 15.0799 6.9534 14.0999 7.92674L12.4466 9.58007C12.1666 9.86007 12.0133 10.4001 12.0999 10.7867L12.5733 12.8334C12.9466 14.4534 12.0866 15.0801 10.6533 14.2334L8.65994 13.0534C8.29994 12.8401 7.70661 12.8401 7.33994 13.0534L5.34661 14.2334C3.91994 15.0801 3.05327 14.4467 3.42661 12.8334L3.89994 10.7867C3.98661 10.4001 3.83327 9.86007 3.55327 9.58007L1.89994 7.92674C0.926606 6.9534 1.23994 5.96674 2.59994 5.74007L4.72661 5.38674C5.07994 5.32674 5.50661 5.0134 5.66661 4.68674L6.83994 2.34007C7.47994 1.06674 8.51994 1.06674 9.15327 2.34007Z" stroke="#24292E" stroke-width="1.5" stroke-linecap="round" stroke-linejoin="round"/>
</svg>
