<svg width="227" height="67" viewBox="0 0 227 67" fill="none" xmlns="http://www.w3.org/2000/svg">
<path d="M174.256 32.64C173.372 32.0569 172.398 31.6423 171.476 31.124C170.878 30.7871 170.241 30.489 169.722 30.0614C168.838 29.3358 169.02 27.9105 169.943 27.2885C171.268 26.4074 173.463 26.8997 173.697 28.7009C173.697 28.7397 173.736 28.7657 173.775 28.7657H175.776C175.828 28.7657 175.867 28.7268 175.854 28.675C175.75 27.431 175.269 26.3944 174.386 25.7335C173.541 25.0986 172.58 24.7617 171.554 24.7617C166.266 24.7617 165.785 30.3465 168.631 32.1088C168.955 32.3161 171.748 33.7155 172.736 34.3245C173.723 34.9335 174.035 36.0479 173.606 36.929C173.216 37.7324 172.203 38.2896 171.19 38.2248C170.086 38.16 169.228 37.564 168.929 36.631C168.877 36.4626 168.851 36.1386 168.851 35.9961C168.851 35.9572 168.812 35.9183 168.773 35.9183H166.604C166.565 35.9183 166.526 35.9572 166.526 35.9961C166.526 37.564 166.916 38.4321 167.981 39.2226C168.981 39.9741 170.073 40.2851 171.203 40.2851C174.165 40.2851 175.698 38.6135 176.009 36.8772C176.282 35.1797 175.776 33.6507 174.256 32.64Z" fill="#24292E"/>
<path d="M80.0569 25.0468H79.0955H78.0432C78.0043 25.0468 77.9783 25.0727 77.9653 25.0986L76.1855 30.9555C76.1595 31.0333 76.0556 31.0333 76.0296 30.9555L74.2498 25.0986C74.2368 25.0598 74.2109 25.0468 74.1719 25.0468H73.1196H72.1583H70.8591C70.8202 25.0468 70.7812 25.0857 70.7812 25.1246V40.0778C70.7812 40.1167 70.8202 40.1555 70.8591 40.1555H73.0287C73.0676 40.1555 73.1066 40.1167 73.1066 40.0778V28.7139C73.1066 28.6232 73.2365 28.6102 73.2625 28.6879L75.0553 34.5837L75.1852 34.9984C75.1982 35.0372 75.2242 35.0502 75.2631 35.0502H76.926C76.965 35.0502 76.991 35.0243 77.0039 34.9984L77.1339 34.5837L78.9266 28.6879C78.9526 28.5972 79.0825 28.6232 79.0825 28.7139V40.0778C79.0825 40.1167 79.1215 40.1555 79.1605 40.1555H81.33C81.369 40.1555 81.4079 40.1167 81.4079 40.0778V25.1246C81.4079 25.0857 81.369 25.0468 81.33 25.0468H80.0569Z" fill="#24292E"/>
<path d="M141.037 25.0468C140.998 25.0468 140.972 25.0727 140.959 25.0986L139.18 30.9555C139.154 31.0333 139.05 31.0333 139.024 30.9555L137.244 25.0986C137.231 25.0598 137.205 25.0468 137.166 25.0468H133.866C133.827 25.0468 133.788 25.0857 133.788 25.1246V40.0778C133.788 40.1167 133.827 40.1555 133.866 40.1555H136.036C136.075 40.1555 136.114 40.1167 136.114 40.0778V28.7139C136.114 28.6232 136.244 28.6102 136.27 28.6879L138.062 34.5837L138.192 34.9984C138.205 35.0372 138.231 35.0502 138.27 35.0502H139.933C139.972 35.0502 139.998 35.0243 140.011 34.9984L140.141 34.5837L141.934 28.6879C141.96 28.5972 142.09 28.6232 142.09 28.7139V40.0778C142.09 40.1167 142.129 40.1555 142.168 40.1555H144.337C144.376 40.1555 144.415 40.1167 144.415 40.0778V25.1246C144.415 25.0857 144.376 25.0468 144.337 25.0468H141.037Z" fill="#24292E"/>
<path d="M113.054 25.0468H109.014H106.845H102.804C102.765 25.0468 102.726 25.0857 102.726 25.1246V26.9905C102.726 27.0293 102.765 27.0682 102.804 27.0682H106.767V40.0778C106.767 40.1167 106.806 40.1555 106.845 40.1555H109.014C109.053 40.1555 109.092 40.1167 109.092 40.0778V27.0682H113.054C113.093 27.0682 113.132 27.0293 113.132 26.9905V25.1246C113.132 25.0857 113.106 25.0468 113.054 25.0468Z" fill="#24292E"/>
<path d="M125.851 40.1555H127.825C127.877 40.1555 127.916 40.1037 127.903 40.0518L123.824 25.0468C123.811 25.0079 123.785 24.9949 123.746 24.9949H122.993H121.667H120.914C120.875 24.9949 120.849 25.0208 120.836 25.0468L116.757 40.0518C116.744 40.1037 116.783 40.1555 116.835 40.1555H118.809C118.848 40.1555 118.874 40.1296 118.887 40.1037L120.07 35.7369C120.083 35.698 120.109 35.6851 120.148 35.6851H124.513C124.552 35.6851 124.577 35.711 124.59 35.7369L125.773 40.1037C125.786 40.1296 125.825 40.1555 125.851 40.1555ZM120.667 33.547L122.252 27.7031C122.278 27.6254 122.382 27.6254 122.408 27.7031L123.993 33.547C124.006 33.5989 123.967 33.6507 123.915 33.6507H120.745C120.693 33.6507 120.654 33.5989 120.667 33.547Z" fill="#24292E"/>
<path d="M159.524 40.1555H161.498C161.55 40.1555 161.589 40.1037 161.576 40.0518L157.497 25.0468C157.484 25.0079 157.458 24.9949 157.419 24.9949H156.666H155.341H154.587C154.548 24.9949 154.522 25.0208 154.509 25.0468L150.43 40.0518C150.417 40.1037 150.456 40.1555 150.508 40.1555H152.482C152.521 40.1555 152.547 40.1296 152.56 40.1037L153.743 35.7369C153.756 35.698 153.782 35.6851 153.821 35.6851H158.186C158.225 35.6851 158.251 35.711 158.264 35.7369L159.446 40.1037C159.459 40.1296 159.485 40.1555 159.524 40.1555ZM154.34 33.547L155.925 27.7031C155.951 27.6254 156.055 27.6254 156.081 27.7031L157.666 33.547C157.679 33.5989 157.64 33.6507 157.588 33.6507H154.418C154.366 33.6507 154.327 33.5989 154.34 33.547Z" fill="#24292E"/>
<path d="M90.2159 37.9397V33.3008C90.2159 33.2619 90.2549 33.2231 90.2938 33.2231H96.0749C96.1139 33.2231 96.1528 33.1842 96.1528 33.1453V31.2794C96.1528 31.2405 96.1139 31.2017 96.0749 31.2017H90.2938C90.2549 31.2017 90.2159 31.1628 90.2159 31.1239V27.1588C90.2159 27.12 90.2549 27.0811 90.2938 27.0811H96.8674C96.9063 27.0811 96.9453 27.0422 96.9453 27.0034V25.1374C96.9453 25.0986 96.9063 25.0597 96.8674 25.0597H90.2159H87.9684C87.9294 25.0597 87.8905 25.0986 87.8905 25.1374V27.0811V31.2146V33.236V38.0304V40.0777C87.8905 40.1166 87.9294 40.1555 87.9684 40.1555H90.2159H97.1402C97.1791 40.1555 97.2181 40.1166 97.2181 40.0777V38.1081C97.2181 38.0693 97.1791 38.0304 97.1402 38.0304H90.2808C90.2419 38.0174 90.2159 37.9915 90.2159 37.9397Z" fill="#24292E"/>
<path d="M194.08 40.0259L186.571 32.2901C186.545 32.2642 186.545 32.2124 186.571 32.1865L193.327 25.1893C193.379 25.1374 193.34 25.0597 193.275 25.0597H190.508C190.482 25.0597 190.469 25.0727 190.456 25.0856L184.727 31.0203C184.675 31.0721 184.597 31.0332 184.597 30.9684V25.1374C184.597 25.0986 184.558 25.0597 184.519 25.0597H182.349C182.31 25.0597 182.271 25.0986 182.271 25.1374V40.0907C182.271 40.1296 182.31 40.1684 182.349 40.1684H184.519C184.558 40.1684 184.597 40.1296 184.597 40.0907V33.5081C184.597 33.4434 184.688 33.4045 184.727 33.4563L191.222 40.1425C191.235 40.1555 191.261 40.1684 191.274 40.1684H194.041C194.093 40.1555 194.132 40.0648 194.08 40.0259Z" fill="#24292E"/>
<path d="M42.9144 34.3492L43.44 27.0425L45.5849 21.8389H36.4108L38.5556 27.0425L39.0813 34.3492L39.2463 36.6534L39.2578 42.3248H42.7341L42.7456 36.6534L42.9144 34.3492Z" fill="url(#paint0_linear_31_1318)"/>
<path d="M54.5519 32.942L47.987 31.0052L49.9706 34.0322L47.0085 39.8583L50.926 39.808H56.7505L54.5519 32.942Z" fill="url(#paint1_linear_31_1318)"/>
<path d="M34.0127 31.0052L27.4477 32.942L25.2645 39.808H31.089L34.995 39.8583L32.0329 34.0322L34.0127 31.0052Z" fill="url(#paint2_linear_31_1318)"/>
<path d="M43.5668 38.0103L42.738 42.3286L43.3404 42.7461L47.0046 39.8582L47.1159 36.9587L43.5668 38.0103Z" fill="url(#paint3_linear_31_1318)"/>
<path d="M34.8915 36.9587L34.9912 39.8582L38.6555 42.7461L39.2579 42.3286L38.4291 38.0103L34.8915 36.9587Z" fill="url(#paint4_linear_31_1318)"/>
<path d="M55.9447 27.9665L56.9999 22.7977L55.4191 18L43.3404 27.0425L47.8488 31.1211L54.5519 32.9459L55.9946 31.2371L55.3654 30.7809L56.3706 29.857L55.6032 29.25L56.6085 28.4768L55.9447 27.9665Z" fill="url(#paint5_linear_31_1318)"/>
<path d="M26.055 27.9665L24.9998 22.7977L26.5807 18L38.6593 27.0425L34.1509 31.1211L27.4478 32.942L26.0051 31.2332L26.6344 30.7771L25.6291 29.8531L26.3965 29.2461L25.3912 28.4729L26.055 27.9665Z" fill="url(#paint6_linear_31_1318)"/>
<path d="M32.0291 34.0322L34.8914 36.9588L34.9912 39.8582L32.0291 34.0322Z" fill="url(#paint7_linear_31_1318)"/>
<path d="M49.9706 34.0322L47.0085 39.8582L47.1198 36.9588L49.9706 34.0322Z" fill="url(#paint8_linear_31_1318)"/>
<path d="M47.5956 44.8337L43.3404 42.7461L43.678 45.5451L43.6397 46.7242L47.5956 44.8337Z" fill="#FF9F5A"/>
<path d="M34.4042 44.8338L38.3601 46.7204L38.3332 45.5413L38.6594 42.7423L34.4042 44.8338Z" fill="#FF9F5A"/>
<path d="M50.9221 39.808L47.5955 44.8338L54.713 46.8093L56.7466 39.808H50.9221Z" fill="url(#paint9_linear_31_1318)"/>
<path d="M25.2645 39.808L27.2866 46.8093L34.4041 44.8338L31.089 39.808H25.2645Z" fill="url(#paint10_linear_31_1318)"/>
<path d="M26.5807 18L38.6593 27.0425L36.7639 21.8389L26.5807 18Z" fill="url(#paint11_linear_31_1318)"/>
<path d="M45.2358 21.8389L43.3404 27.0425L55.4191 18L45.2358 21.8389Z" fill="url(#paint12_linear_31_1318)"/>
<path d="M34.0128 31.0052L32.0291 34.0322L39.0852 34.3492L38.6593 27.0425L34.0128 31.0052Z" fill="url(#paint13_linear_31_1318)"/>
<path d="M47.9868 31.0052L43.3403 27.0425L42.9144 34.3492L49.9705 34.0322L47.9868 31.0052Z" fill="url(#paint14_linear_31_1318)"/>
<path d="M34.4042 44.8338L38.6594 42.7462L34.9951 39.8583L34.4042 44.8338Z" fill="#9383FA"/>
<path d="M43.3404 42.7462L47.5956 44.8338L47.0047 39.8583L43.3404 42.7462Z" fill="#9383FA"/>
<path d="M47.0085 39.8582L47.5994 44.8338L50.9261 39.808L47.0085 39.8582Z" fill="url(#paint15_linear_31_1318)"/>
<path d="M34.9912 39.8582L34.4003 44.8338L31.0737 39.808L34.9912 39.8582Z" fill="url(#paint16_linear_31_1318)"/>
<path d="M49.9705 34.0322L42.9144 34.3492L43.5667 38.0103L44.6103 35.8067L47.1197 36.9588L49.9705 34.0322Z" fill="#9C5ADD"/>
<path d="M34.8914 36.9588L37.3893 35.8067L38.4329 38.0103L39.0852 34.3492L32.0291 34.0322L34.8914 36.9588Z" fill="#9C5ADD"/>
<path d="M43.5668 38.0103L42.9145 34.3492L42.7495 36.6534L42.738 42.3286L43.5668 38.0103Z" fill="url(#paint17_linear_31_1318)"/>
<path d="M38.433 38.0103L39.2618 42.3286L39.2502 36.6534L39.0853 34.3492L38.433 38.0103Z" fill="url(#paint18_linear_31_1318)"/>
<path d="M43.6665 46.7049L43.6819 45.5412L43.3672 45.2629H38.6325L38.3293 45.5412L38.3562 46.7203L34.4003 44.8337L35.7816 45.9742L38.5941 47.9381H43.4018L46.2142 45.9742L47.5955 44.8337L43.6665 46.7049Z" fill="#DF7554"/>
<path d="M43.3404 42.7461L42.738 42.3286H39.2617L38.6593 42.7461L38.3332 45.5451L38.6363 45.2668H43.3673L43.6819 45.5451L43.3404 42.7461Z" fill="#24292E" stroke="#24292E" stroke-width="0.0447685" stroke-miterlimit="10" stroke-linejoin="round"/>
<path d="M44.6103 35.8068L43.5667 38.0103L47.1197 36.9588L44.6103 35.8068Z" fill="#24292E"/>
<path d="M37.3893 35.8068L38.433 38.0103L34.8915 36.9588L37.3893 35.8068Z" fill="#24292E"/>
<defs>
<linearGradient id="paint0_linear_31_1318" x1="40.9998" y1="21.8371" x2="40.9998" y2="42.3267" gradientUnits="userSpaceOnUse">
<stop stop-color="#FB7FE4"/>
<stop offset="1" stop-color="#BCABFB"/>
</linearGradient>
<linearGradient id="paint1_linear_31_1318" x1="51.8779" y1="31.0055" x2="51.8779" y2="39.8573" gradientUnits="userSpaceOnUse">
<stop stop-color="#B65FE5"/>
<stop offset="1" stop-color="#ADA2FC"/>
</linearGradient>
<linearGradient id="paint2_linear_31_1318" x1="30.1281" y1="31.0055" x2="30.1281" y2="39.8573" gradientUnits="userSpaceOnUse">
<stop stop-color="#B65FE5"/>
<stop offset="1" stop-color="#ADA2FC"/>
</linearGradient>
<linearGradient id="paint3_linear_31_1318" x1="42.7386" y1="39.8509" x2="47.1199" y2="39.8509" gradientUnits="userSpaceOnUse">
<stop stop-color="#C8A8F7"/>
<stop offset="1" stop-color="#BAAAFB"/>
</linearGradient>
<linearGradient id="paint4_linear_31_1318" x1="34.8924" y1="39.8509" x2="39.2612" y2="39.8509" gradientUnits="userSpaceOnUse">
<stop stop-color="#C8A8F7"/>
<stop offset="1" stop-color="#BAAAFB"/>
</linearGradient>
<linearGradient id="paint5_linear_31_1318" x1="45.5773" y1="30.9442" x2="58.5694" y2="23.4995" gradientUnits="userSpaceOnUse">
<stop stop-color="#541758"/>
<stop offset="0.4286" stop-color="#4F206C"/>
<stop offset="0.62" stop-color="#4D2577"/>
<stop offset="1" stop-color="#8B45B6"/>
</linearGradient>
<linearGradient id="paint6_linear_31_1318" x1="34.0971" y1="30.875" x2="22.8718" y2="21.5266" gradientUnits="userSpaceOnUse">
<stop stop-color="#541758"/>
<stop offset="0.4286" stop-color="#4F206C"/>
<stop offset="0.62" stop-color="#4D2577"/>
<stop offset="1" stop-color="#8B45B6"/>
</linearGradient>
<linearGradient id="paint7_linear_31_1318" x1="32.03" y1="36.9447" x2="34.9928" y2="36.9447" gradientUnits="userSpaceOnUse">
<stop stop-color="#BA86F3"/>
<stop offset="0.5281" stop-color="#B786F4"/>
<stop offset="0.8987" stop-color="#AE86F5"/>
<stop offset="1" stop-color="#AA86F6"/>
</linearGradient>
<linearGradient id="paint8_linear_31_1318" x1="47.007" y1="36.9447" x2="49.9697" y2="36.9447" gradientUnits="userSpaceOnUse">
<stop stop-color="#BA86F3"/>
<stop offset="0.5281" stop-color="#B786F4"/>
<stop offset="0.8987" stop-color="#AE86F5"/>
<stop offset="1" stop-color="#AA86F6"/>
</linearGradient>
<linearGradient id="paint9_linear_31_1318" x1="52.1728" y1="39.8067" x2="52.1728" y2="46.8097" gradientUnits="userSpaceOnUse">
<stop stop-color="#906EF7"/>
<stop offset="1" stop-color="#575ADE"/>
</linearGradient>
<linearGradient id="paint10_linear_31_1318" x1="29.833" y1="39.8067" x2="29.833" y2="46.8097" gradientUnits="userSpaceOnUse">
<stop stop-color="#906EF7"/>
<stop offset="1" stop-color="#575ADE"/>
</linearGradient>
<linearGradient id="paint11_linear_31_1318" x1="26.5816" y1="22.5209" x2="38.6586" y2="22.5209" gradientUnits="userSpaceOnUse">
<stop stop-color="#BB65ED"/>
<stop offset="1" stop-color="#E560E3"/>
</linearGradient>
<linearGradient id="paint12_linear_31_1318" x1="43.3412" y1="22.5209" x2="55.4181" y2="22.5209" gradientUnits="userSpaceOnUse">
<stop stop-color="#E560E3"/>
<stop offset="0.2946" stop-color="#DE61E5"/>
<stop offset="0.7098" stop-color="#CC63E9"/>
<stop offset="1" stop-color="#BB65ED"/>
</linearGradient>
<linearGradient id="paint13_linear_31_1318" x1="35.5577" y1="27.0418" x2="35.5577" y2="34.3487" gradientUnits="userSpaceOnUse">
<stop stop-color="#DC69E6"/>
<stop offset="1" stop-color="#C289F3"/>
</linearGradient>
<linearGradient id="paint14_linear_31_1318" x1="46.4419" y1="27.0418" x2="46.4419" y2="34.3487" gradientUnits="userSpaceOnUse">
<stop stop-color="#DC69E6"/>
<stop offset="1" stop-color="#C289F3"/>
</linearGradient>
<linearGradient id="paint15_linear_31_1318" x1="48.9654" y1="33.3988" x2="48.9654" y2="46.4289" gradientUnits="userSpaceOnUse">
<stop stop-color="#6848BA"/>
<stop offset="0.3363" stop-color="#6356D5"/>
</linearGradient>
<linearGradient id="paint16_linear_31_1318" x1="33.0344" y1="39.8066" x2="33.0344" y2="44.8341" gradientUnits="userSpaceOnUse">
<stop stop-color="#6848BA"/>
<stop offset="0.3363" stop-color="#6356D5"/>
</linearGradient>
<linearGradient id="paint17_linear_31_1318" x1="43.1528" y1="42.3267" x2="43.1528" y2="34.3487" gradientUnits="userSpaceOnUse">
<stop stop-color="#BA86F3"/>
<stop offset="0.5281" stop-color="#B786F4"/>
<stop offset="0.8987" stop-color="#AE86F5"/>
<stop offset="1" stop-color="#AA86F6"/>
</linearGradient>
<linearGradient id="paint18_linear_31_1318" x1="38.4326" y1="38.3377" x2="39.2612" y2="38.3377" gradientUnits="userSpaceOnUse">
<stop stop-color="#BA86F3"/>
<stop offset="0.5281" stop-color="#B786F4"/>
<stop offset="0.8987" stop-color="#AE86F5"/>
<stop offset="1" stop-color="#AA86F6"/>
</linearGradient>
</defs>
</svg>
