<svg width="16" height="16" viewBox="0 0 16 16" fill="none" xmlns="http://www.w3.org/2000/svg">
<path d="M14.6667 7.26666V2.73333C14.6667 1.73333 14.24 1.33333 13.18 1.33333H10.4867C9.42667 1.33333 9 1.73333 9 2.73333V7.26666C9 8.26666 9.42667 8.66666 10.4867 8.66666H13.18C14.24 8.66666 14.6667 8.26666 14.6667 7.26666Z" stroke="#24292E" stroke-width="1.5" stroke-linecap="round" stroke-linejoin="round"/>
<path d="M14.6667 13.2667V12.0667C14.6667 11.0667 14.24 10.6667 13.18 10.6667H10.4867C9.42667 10.6667 9 11.0667 9 12.0667V13.2667C9 14.2667 9.42667 14.6667 10.4867 14.6667H13.18C14.24 14.6667 14.6667 14.2667 14.6667 13.2667Z" stroke="#24292E" stroke-width="1.5" stroke-linecap="round" stroke-linejoin="round"/>
<path d="M7.00004 8.73333V13.2667C7.00004 14.2667 6.57337 14.6667 5.51337 14.6667H2.82004C1.76004 14.6667 1.33337 14.2667 1.33337 13.2667V8.73333C1.33337 7.73333 1.76004 7.33333 2.82004 7.33333H5.51337C6.57337 7.33333 7.00004 7.73333 7.00004 8.73333Z" stroke="#24292E" stroke-width="1.5" stroke-linecap="round" stroke-linejoin="round"/>
<path d="M7.00004 2.73333V3.93333C7.00004 4.93333 6.57337 5.33333 5.51337 5.33333H2.82004C1.76004 5.33333 1.33337 4.93333 1.33337 3.93333V2.73333C1.33337 1.73333 1.76004 1.33333 2.82004 1.33333H5.51337C6.57337 1.33333 7.00004 1.73333 7.00004 2.73333Z" stroke="#24292E" stroke-width="1.5" stroke-linecap="round" stroke-linejoin="round"/>
</svg>
