<svg width="311" height="272" viewBox="0 0 311 272" fill="none" xmlns="http://www.w3.org/2000/svg">
<g filter="url(#filter0_d_97_11029)">
<path d="M278.964 25.6869C271.247 17.3632 260.033 12.6198 248.7 11.9852C237.368 11.3522 225.985 14.6588 216.249 20.4919C212.02 23.2972 214.148 26.4071 223.406 23.5162C228.55 21.9356 231.201 21.484 235.123 21.4567C237.84 21.4378 238.651 25.2319 236.133 26.2497C236.068 26.2754 236.003 26.301 235.938 26.3216C224.993 30.0062 213.507 32.076 201.964 32.442C199.408 32.5224 196.64 32.5857 194.88 34.7838C194.033 35.841 193.893 37.336 194.641 38.4667C195.53 39.8129 197.172 39.8591 198.637 39.789C210.303 39.2211 221.522 35.0404 233.153 33.9713C248.447 32.5635 264.171 36.8536 276.735 45.6631C278.769 48.3676 280.729 51.1319 282.672 53.8774L288.42 57.1069C290.584 45.9642 286.679 34.0106 278.964 25.6869Z" fill="url(#paint0_linear_97_11029)"/>
<path d="M197.571 134.776C208.708 141.795 223.478 143.774 235.346 138.077C236.066 137.732 236.796 137.359 237.592 137.287C238.387 137.217 239.275 137.532 239.629 138.247C239.974 138.948 239.701 139.831 239.169 140.406C238.637 140.98 237.9 141.312 237.176 141.61C224.547 146.827 209.745 146.516 197.347 140.772" fill="url(#paint1_linear_97_11029)"/>
<path d="M199.981 132.22C203.715 134.571 207.535 135.573 211.972 135.89C213.204 135.977 214.704 135.909 215.609 134.944C215.85 134.687 216.026 134.384 216.141 134.061C216.603 132.752 215.929 131.321 214.675 130.727C210.209 128.609 204.097 122.279 201.781 120.395C200.147 119.066 201.704 121.967 200.52 120.282C199.494 118.821 198.139 116.914 196.278 116.488C193.903 115.946 192.614 118.51 192.239 120.431C191.286 125.317 196.317 129.913 199.981 132.22Z" fill="url(#paint2_linear_97_11029)"/>
<path d="M284.09 80.6787C282.139 95.1212 275.666 108.919 265.808 119.653C264.679 120.883 263.315 122.159 261.646 122.166C259.015 122.176 257.452 118.878 258.078 116.322C258.704 113.767 260.693 111.817 262.409 109.82C267.298 104.131 270.486 96.9977 271.466 89.5601C271.742 87.4646 271.138 84.5344 269.024 84.5686C265.601 84.6251 266.964 91.7411 263.606 92.4065C262.048 92.7161 260.661 91.1082 260.524 89.5259C260.389 87.9436 261.093 86.428 261.672 84.9501C265.288 75.6958 264.113 64.7139 258.62 56.4346L284.09 80.6787Z" fill="url(#paint3_linear_97_11029)"/>
<path d="M50.9481 122.152C44.8413 126.218 39.7626 131.813 36.3055 138.283C35.6589 139.492 34.6497 140.946 33.3137 140.635C32.4961 140.445 31.9692 139.586 31.9059 138.748C31.8443 137.91 32.1471 137.092 32.479 136.319C34.3024 132.082 37.1557 128.291 40.724 125.368L50.9481 122.152Z" fill="url(#paint4_linear_97_11029)"/>
<path d="M33.1393 110.664C19.5384 121.221 10.2363 137.169 7.77131 154.212C7.68236 154.822 7.90131 155.454 8.38198 155.84C9.62729 156.844 11.1412 155.088 11.5705 153.598C12.2958 151.085 12.5387 148.43 13.5206 146.006C13.9807 144.872 14.6598 143.77 15.5185 142.891C16.4833 141.904 18.0896 143.018 17.5285 144.28C13.9414 152.351 12.0717 161.182 12.1025 170.014C12.1059 170.936 12.1624 171.951 13.0262 172.512C13.8148 173.023 14.848 172.891 15.5716 172.293C16.9862 171.119 17.0478 169.287 17.1402 167.595C18.0964 149.805 27.6038 132.667 42.1917 122.441L33.1393 110.664Z" fill="url(#paint5_linear_97_11029)"/>
<path d="M72.498 67.8666C83.6767 70.4239 94.7544 63.5046 103.324 55.8857C111.894 48.2667 120.098 39.2742 131.174 36.3012C133.761 35.6067 137.502 36.0172 137.8 38.6772C138.078 41.1661 135.003 42.4713 132.591 43.1401C123.978 45.5281 115.984 50.1159 109.58 56.3492C107.353 58.5166 105.439 62.533 107.996 64.3C111.595 66.7872 115.877 59.613 119.606 59.5925C120.577 59.5874 121.291 60.5214 121.029 61.4571C119.956 65.3059 116.333 68.1762 112.577 69.7893C108.408 71.5803 103.829 72.3227 99.7579 74.3241C93.256 77.5212 88.7195 83.5544 83.6048 88.6861C78.4902 93.8179 71.7454 98.4279 64.5677 97.4289" fill="url(#paint6_linear_97_11029)"/>
<path d="M275.661 121.408L275.714 122.677C275.888 122.263 275.902 121.81 275.661 121.408Z" fill="url(#paint7_linear_97_11029)"/>
<path d="M120.716 162.821C117.009 165.423 113.302 168.025 109.596 170.627C108.576 171.342 107.521 172.074 106.304 172.337C105.088 172.601 103.655 172.277 102.964 171.241C102.332 170.293 102.479 168.995 103.011 167.987C103.543 166.98 104.399 166.191 105.204 165.387C108.557 162.043 111.311 158.102 113.301 153.805L120.716 162.821Z" fill="url(#paint8_linear_97_11029)"/>
<path d="M124.751 161.54C117.144 169.903 109.465 178.333 100.283 184.929C98.9761 185.868 97.5529 186.8 95.9467 186.903C94.3405 187.005 92.5495 185.953 92.4212 184.349C92.2296 181.934 95.2659 180.62 95.0281 178.17C94.7595 175.409 90.7294 173.174 88.1858 173.049C82.351 172.761 75.1066 179.795 70.8935 183.179C69.0546 184.655 67.1199 186.467 67.0036 188.82C66.4511 199.936 81.4666 183.617 78.8289 196.597C78.1258 200.055 81.003 203.506 84.4174 204.402C87.83 205.298 91.4786 204.173 94.5491 202.437C97.6214 200.7 100.316 198.365 103.338 196.544C105.257 195.386 108.017 194.556 109.505 196.231C111.313 198.264 109.238 201.28 107.69 203.518C104.647 207.917 103.648 213.672 105.03 218.839C105.502 220.603 106.304 222.392 108.035 223.234C108.906 223.656 109.931 223.711 110.788 223.261C112.544 222.339 112.526 220.139 112.038 218.393C111.263 213.855 114.734 214.079 114.842 216.118C115.321 225.056 121.864 231.251 130.629 233.33L124.751 161.54Z" fill="url(#paint9_linear_97_11029)"/>
<path d="M149.796 179.735L165.157 167.361L129.753 123.409C126.335 119.167 120.127 118.498 115.885 121.916C111.643 125.334 110.974 131.541 114.392 135.784L149.796 179.735Z" fill="url(#paint10_linear_97_11029)"/>
<path d="M125.658 137.852C122.793 140.116 119.929 142.381 117.064 144.646C116.527 145.07 115.969 145.507 115.307 145.679C114.645 145.854 113.844 145.695 113.463 145.125C112.964 144.379 113.393 143.363 113.952 142.662C115.495 140.732 117.957 139.632 119.267 137.537C120.05 136.283 120.343 134.791 120.952 133.445C122.016 131.091 124.096 129.217 126.549 128.402L125.658 137.852Z" fill="url(#paint11_linear_97_11029)"/>
<path d="M130.435 260.523H195.87C199.627 260.523 202.67 257.478 202.67 253.723V104.059C202.67 100.303 199.625 97.2595 195.87 97.2595H130.435C126.679 97.2595 123.636 100.304 123.636 104.059V253.721C123.634 257.478 126.679 260.523 130.435 260.523Z" fill="#24292E"/>
<path d="M177.904 255.48H148.402V256.6H177.904V255.48Z" fill="#606060"/>
<path d="M178.241 101.505H149.207V102.626H178.241V101.505Z" fill="#606060"/>
<path d="M198.52 109.061H127.782V250.844H198.52V109.061Z" fill="white"/>
<path d="M198.522 118.443C193.968 116.377 188.667 115.595 183.722 116.242C173.269 117.61 164.139 123.784 155.656 130.046C153.279 131.801 150.181 133.654 147.577 132.253C144.274 130.476 145.282 125.224 147.978 122.615C150.673 120.007 154.457 118.604 156.758 115.641C157.324 114.913 157.803 113.972 157.517 113.094C156.893 111.185 154.033 111.892 152.333 112.959C145.986 116.943 139.642 120.929 133.296 124.913C131.535 126.018 129.724 127.14 127.782 127.836V137.255C128.674 136.31 129.479 135.274 130.526 134.511C131.966 133.46 134.219 133.113 135.386 134.459C136.907 136.213 135.357 138.856 135.271 141.175C135.105 145.662 140.976 148.264 145.232 146.834C149.488 145.404 152.396 141.593 155.357 138.219C160.165 132.742 165.91 127.87 172.742 125.335C179.575 122.802 187.622 122.87 193.806 126.731C195.624 127.867 197.224 129.364 198.52 131.086V118.443H198.522Z" fill="url(#paint12_linear_97_11029)"/>
<path d="M196.941 209.809C195.024 212.508 192.79 214.985 190.308 217.177C184.933 221.922 178.383 225.29 171.353 226.744C164.255 228.208 156.856 227.678 149.933 225.615C144.052 223.863 139.1 220.476 135.335 215.618C131.717 210.943 129.358 205.315 128.27 199.525C128.053 198.37 127.892 197.2 127.782 196.025V234.705C129.428 236.802 131.546 238.559 133.74 240.011C136.332 241.725 139.159 243.263 141.939 244.642C144.717 246.019 147.842 247.329 151.007 247.182C153.761 247.052 156.702 245.422 156.004 242.24C155.354 239.84 153.056 237.813 149.25 235.343C148.392 234.787 148.256 233.567 149.002 232.861C149.007 232.856 149.016 232.849 149.021 232.844C149.676 232.225 150.805 232.033 151.722 231.959C156.59 231.569 161.25 233.761 166.082 233.107C169.5 232.645 172.875 231.696 176.334 231.578C177.468 231.539 178.994 231.496 179.928 232.264C180.908 233.071 180.783 234.688 180.33 235.774C179.983 236.602 178.06 240.293 177.808 240.983C176.975 243.256 177.119 245.981 179.433 247.308C181.962 248.756 184.772 247.149 187.015 245.913C189.757 244.395 192.203 242.45 194.398 240.216C195.91 238.675 197.318 237.047 198.525 235.278V207.466C198.012 208.266 197.484 209.046 196.941 209.809Z" fill="url(#paint13_linear_97_11029)"/>
<path d="M198.522 109.061V118.443C193.968 116.377 188.669 115.595 183.72 116.242C173.267 117.61 164.137 123.784 155.656 130.046C153.278 131.803 150.18 133.654 147.577 132.253C144.274 130.476 145.281 125.224 147.979 122.616C150.675 120.005 154.457 118.602 156.758 115.64C157.326 114.911 157.805 113.97 157.517 113.093C156.893 111.184 154.033 111.89 152.332 112.958C145.986 116.942 139.64 120.925 133.295 124.913C131.537 126.018 129.724 127.138 127.784 127.835V109.061H198.522Z" fill="url(#paint14_linear_97_11029)"/>
<path d="M198.522 235.278V250.844H127.782V234.703C129.428 236.8 131.546 238.557 133.74 240.009C136.332 241.723 139.159 243.261 141.939 244.64C144.717 246.017 147.842 247.327 151.007 247.18C153.761 247.05 156.702 245.42 156.004 242.238C155.354 239.838 153.056 237.811 149.25 235.341C148.392 234.785 148.256 233.566 149.002 232.859C149.007 232.854 149.016 232.847 149.021 232.842C149.676 232.223 150.805 232.031 151.722 231.958C156.59 231.568 161.25 233.759 166.082 233.106C169.5 232.644 172.875 231.694 176.334 231.576C177.468 231.537 178.994 231.494 179.928 232.262C180.908 233.07 180.783 234.686 180.33 235.772C179.983 236.6 178.06 240.292 177.808 240.981C176.975 243.254 177.119 245.979 179.433 247.307C181.962 248.754 184.772 247.148 187.015 245.911C189.757 244.394 192.203 242.449 194.398 240.215C195.905 238.675 197.314 237.047 198.522 235.278Z" fill="url(#paint15_linear_97_11029)"/>
<path d="M131.274 172.883C132.026 171.295 132.899 169.771 133.725 168.223C135.265 165.346 136.718 162.318 136.744 158.986C136.76 157.301 136.363 155.079 134.39 154.723C132.668 154.412 130.944 155.648 129.671 156.647C129.011 157.166 128.379 157.725 127.782 158.319V187.855C128.066 184.544 128.67 181.259 129.491 178.103C129.958 176.317 130.48 174.556 131.274 172.883Z" fill="url(#paint16_linear_97_11029)"/>
<path d="M195.297 139.879C196.425 140.241 197.507 140.734 198.522 141.343V135.53C193.106 130.445 184.434 128.233 177.415 129.47C170.754 130.642 164.95 134.858 160.23 139.511C158.017 141.695 156.077 144.082 154.101 146.475C152.553 148.349 150.949 150.193 149.673 152.274C148.503 154.183 147.302 156.701 148.07 158.977C148.835 161.24 151.37 162.891 153.718 162.068C156.048 161.254 157.671 158.981 159.035 157.05C160.727 154.656 162.452 152.34 164.668 150.395C166.963 148.382 170.833 145.495 173.671 144.413C175.554 143.84 177.302 144.822 174.474 146.865C172.913 148.344 171.074 149.824 172.102 152.212C173.357 155.132 176.383 154.964 178.96 154.138C181.996 153.163 185.297 152.202 188.313 153.81C190.894 155.183 192.838 157.835 194.251 160.327C196.893 164.99 198.26 170.455 198.52 175.828V156.822C196.683 153.43 194.483 150.231 191.967 147.304C191.17 146.377 190.33 145.457 189.834 144.34C189.338 143.223 189.245 141.842 189.933 140.83C191.03 139.217 193.44 139.282 195.297 139.879Z" fill="url(#paint17_linear_97_11029)"/>
<path d="M161.546 209.452C150.167 207.647 142.404 196.961 144.209 185.584C144.991 180.657 147.437 176.408 150.884 173.322C155.398 169.277 161.626 167.224 168.079 168.247C179.457 170.052 187.218 180.738 185.414 192.117C184.829 195.805 183.311 199.111 181.141 201.836C176.611 207.52 169.237 210.671 161.546 209.452Z" fill="#FFD23D"/>
<path d="M164.799 207.684C163.824 207.684 162.843 207.609 161.862 207.453C156.893 206.665 152.528 203.99 149.57 199.918C146.613 195.847 145.419 190.869 146.207 185.898C146.883 181.634 149.024 177.701 152.234 174.826C156.477 171.021 162.138 169.352 167.76 170.243C172.73 171.032 177.095 173.707 180.051 177.778C183.007 181.849 184.203 186.829 183.414 191.798C182.904 195.012 181.57 198.047 179.555 200.577C175.951 205.103 170.482 207.684 164.799 207.684ZM162.04 206.336C168.328 207.334 174.7 204.857 178.674 199.872C180.568 197.496 181.822 194.643 182.3 191.622C183.041 186.95 181.919 182.27 179.139 178.444C176.36 174.617 172.258 172.101 167.586 171.36C162.3 170.522 156.98 172.092 152.99 175.667C149.972 178.37 147.96 182.067 147.324 186.076C146.583 190.748 147.707 195.428 150.485 199.255C153.263 203.081 157.369 205.596 162.04 206.336Z" fill="#F66A0A"/>
<path d="M164.726 179.951C164.726 184.865 160.742 188.848 155.829 188.848C160.744 188.848 164.726 192.832 164.726 197.744C164.726 192.83 168.71 188.848 173.623 188.848C168.71 188.849 164.726 184.865 164.726 179.951Z" fill="white"/>
<path d="M133.916 174.703C136.559 172.671 137.264 168.984 135.559 166.119L125.54 149.294C122.469 145.483 116.891 144.882 113.08 147.951C108.53 151.476 108.218 158.237 112.426 162.164L125.417 174.294C127.767 176.492 131.364 176.665 133.916 174.703Z" fill="url(#paint18_linear_97_11029)"/>
<path d="M130.583 213.69C133.662 209.855 133.559 204.662 130.355 202.091L126.231 199.017C123.027 196.446 117.934 197.469 114.857 201.304C111.778 205.139 111.881 210.332 115.085 212.903L119.209 215.977C122.413 218.55 127.505 217.525 130.583 213.69Z" fill="url(#paint19_linear_97_11029)"/>
<path d="M131.086 194.188C134.165 190.353 134.062 185.159 130.858 182.588L126.734 179.515C123.53 176.944 118.437 177.966 115.36 181.802C112.281 185.637 112.384 190.83 115.588 193.401L119.712 196.475C122.914 199.048 128.006 198.023 131.086 194.188Z" fill="url(#paint20_linear_97_11029)"/>
<path d="M207.049 176.001C207.049 178.392 208.303 181.832 210.397 181.832C210.397 181.832 207.049 183.627 207.049 186.468L204.716 179.952L207.049 176.001Z" fill="url(#paint21_linear_97_11029)"/>
<path d="M210.236 142.715C208.705 142.715 207.047 145.416 207.047 148.291V143.221C207.047 143.221 208.477 142.715 210.236 142.715Z" fill="#CED2D5"/>
<path d="M245.529 41.8059C244.807 40.7864 244.514 39.5223 244.718 38.2889L249.757 7.59763L249.759 7.58737C249.882 6.71497 250.359 5.93152 251.08 5.42177C251.083 5.42006 251.085 5.41835 251.088 5.41493L253.909 3.41696L254.236 3.18604L253.202 8.417L294.534 66.7582L290.305 96.6164L293.155 97.3434L291.911 98.2244C289.554 99.8939 286.29 99.3363 284.621 96.9808L245.529 41.8059Z" fill="#24292E"/>
<path d="M298.203 65.9576L293.942 96.0451C293.699 97.7574 291.489 98.2928 290.488 96.8816L250.086 39.8524C249.369 38.8414 249.066 37.5927 249.241 36.3662L253.847 3.83092C253.97 2.96707 255.086 2.69509 255.59 3.4084L297.317 62.3073C298.068 63.3661 298.384 64.673 298.203 65.9576Z" fill="#606060"/>
<path d="M59.5199 121.668C58.8767 122.792 57.8093 123.635 56.5503 124.013L25.2244 133.432L25.2141 133.435C24.3332 133.721 23.3769 133.644 22.573 133.22C22.5695 133.218 22.5661 133.216 22.5644 133.214L19.4118 131.555L24.4649 129.918L61.2818 65.5985L91.4582 55.8208L90.8732 52.8923L92.2639 53.6244C94.8982 55.0117 95.827 58.2413 94.3405 60.8396L59.5199 121.668Z" fill="#24292E"/>
<path d="M58.8818 62.6151L89.2891 52.7621C91.0202 52.2011 92.5153 53.9715 91.6241 55.5282L55.6351 118.402C54.997 119.518 53.9502 120.363 52.71 120.765L19.8291 131.418C18.955 131.7 18.2007 130.808 18.6506 130.022L55.8181 65.0886C56.487 63.922 57.5817 63.0359 58.8818 62.6151Z" fill="#606060"/>
<path d="M95.0281 170.738C95.8698 170.847 96.7216 170.598 97.4914 170.242C98.9882 169.551 100.29 168.444 101.214 167.081C103.776 163.298 99.8503 161.022 96.879 163.709C95.4045 165.043 90.3411 170.124 95.0281 170.738Z" fill="url(#paint22_linear_97_11029)"/>
<path d="M48.7757 211.937C40.7804 213.49 30.6503 204.749 39.2204 194.298C45.322 186.824 45.4965 191.956 45.1663 198.11C45.3117 201.964 45.9019 203.572 51.4014 204.359C56.901 205.146 56.771 210.384 48.7757 211.937Z" fill="url(#paint23_linear_97_11029)"/>
<path d="M39.3025 115.927C37.65 116.285 35.6213 115.561 35.144 113.94C34.6394 112.224 36.0028 110.573 37.26 109.302C39.0476 107.494 40.8369 105.684 42.6244 103.876C43.2385 103.255 43.8988 102.379 43.5054 101.601C42.9409 100.484 41.2457 101.158 40.2792 101.952C37.816 103.974 35.3527 105.994 32.8895 108.016L22.7491 125.725L54.164 115.575L61.6786 102.448C55.24 105.32 49.1623 109.003 43.6422 113.39C42.3165 114.442 40.9549 115.57 39.3025 115.927Z" fill="url(#paint24_linear_97_11029)"/>
<path d="M62.2791 97.6923C61.1398 96.1049 61.5623 93.8178 62.6588 92.2013C63.757 90.5831 65.3975 89.4353 66.8703 88.1489C68.574 86.659 70.117 84.8886 70.8713 82.7555C71.6274 80.6206 71.4769 78.0719 70.0639 76.3031C69.6431 75.778 69.0975 75.2699 69.053 74.5994C68.9846 73.5867 70.0537 72.9179 70.974 72.4885C74.5491 70.8156 78.1259 69.1426 81.7011 67.4697L87.8318 56.7597L56.4169 66.9103L32.8878 108.016C35.3511 105.994 37.8143 103.974 40.2775 101.952C41.244 101.158 42.9392 100.486 43.5037 101.601C43.8971 102.379 43.2351 103.257 42.6228 103.876C40.8352 105.684 39.0459 107.494 37.2584 109.302C36.0011 110.573 34.6377 112.225 35.1424 113.939C35.6196 115.563 37.6484 116.285 39.3008 115.927C40.9532 115.57 42.3148 114.442 43.6388 113.39C49.1589 109.003 55.2366 105.32 61.6752 102.448L63.8083 98.7203C63.2028 98.5476 62.6469 98.202 62.2791 97.6923Z" fill="white"/>
<path d="M70.9738 72.4852C70.0553 72.9145 68.9844 73.5834 69.0529 74.596C69.0973 75.2666 69.6447 75.7746 70.0638 76.2998C71.4768 78.0685 71.6273 80.6173 70.8712 82.7521C70.1151 84.8869 68.5739 86.6556 66.8702 88.1456C65.3991 89.4319 63.7569 90.5814 62.6587 92.1979C61.5606 93.8162 61.1397 96.1015 62.279 97.6889C62.6451 98.2004 63.2027 98.5442 63.81 98.717L81.7009 67.4663C78.1258 69.1393 74.5489 70.8122 70.9738 72.4852Z" fill="url(#paint25_linear_97_11029)"/>
<path d="M87.1971 208.771C85.401 207.786 83.0267 209.055 81.3777 209.804C81.1639 209.902 80.2864 210.355 79.9767 210.456C78.8614 210.82 77.197 211.708 76.3503 212.751C75.4574 214.426 77.6846 215.822 80.9244 215.815C82.8916 215.902 85.1239 215.156 86.7216 214.029C87.6299 213.388 88.4698 212.503 88.5057 211.326C88.5365 210.321 88.1071 209.27 87.1971 208.771Z" fill="url(#paint26_linear_97_11029)"/>
<path d="M257.749 141.112C257.14 140.021 255.231 139.46 252.794 139.978C250.775 140.407 248.916 141.399 247.741 142.45C246.791 143.105 245.589 143.71 244.53 144.301C242.869 145.224 241.177 146.157 239.768 147.191C238.625 148.031 237.778 148.971 238.166 149.805C238.563 150.655 239.992 150.965 241.726 150.811C243.48 150.655 245.298 150.151 246.979 149.614C248.425 149.152 249.85 148.615 251.124 147.978C254.48 146.297 258.914 143.208 257.749 141.112Z" fill="url(#paint27_linear_97_11029)"/>
<path d="M266.23 52.55C267.638 51.3253 269.995 52.1994 271.022 53.7577C272.05 55.3161 272.168 57.2764 272.436 59.1238C272.705 60.9712 273.264 62.9624 274.805 64.0161C276.964 65.4923 280.202 64.247 281.46 61.9531C282.717 59.6592 282.361 56.7752 281.309 54.3804C280.257 51.9855 278.586 49.926 277.161 47.7313C273.358 41.876 271.299 34.9088 271.27 27.9296L257.652 8.70776L253.226 39.7788L265.019 56.4262C265.028 56.2911 265.038 56.156 265.047 56.0208C265.132 54.767 265.283 53.3745 266.23 52.55Z" fill="white"/>
<path d="M294.91 65.8413L295.449 62.0574L288.091 51.6725C288.216 55.9028 288.776 60.3007 291.709 63.2326C292.664 64.1888 293.856 64.974 294.91 65.8413Z" fill="white"/>
<path d="M291.709 63.2343C288.774 60.3006 288.216 55.9027 288.092 51.6741L271.27 27.9295C271.299 34.9087 273.358 41.8759 277.161 47.7312C278.586 49.9259 280.257 51.9854 281.309 54.3803C282.361 56.7751 282.717 59.6591 281.46 61.953C280.202 64.2469 276.964 65.4922 274.805 64.016C273.264 62.9623 272.705 60.9711 272.436 59.1237C272.168 57.2763 272.05 55.316 271.022 53.7576C269.994 52.1993 267.638 51.3252 266.23 52.5499C265.283 53.3744 265.132 54.7669 265.047 56.0207C265.038 56.1559 265.028 56.291 265.019 56.4261L285.493 85.3282C286.35 83.0753 287.732 81.0243 289.551 79.442C290.746 78.4037 292.101 77.5604 293.374 76.6179L294.908 65.8412C293.856 64.9739 292.664 64.1888 291.709 63.2343Z" fill="url(#paint28_linear_97_11029)"/>
<path d="M285.493 85.3264L291.022 93.1301L293.374 76.6179C292.103 77.5604 290.746 78.402 289.551 79.442C287.732 81.0243 286.35 83.0753 285.493 85.3264Z" fill="white"/>
<path d="M42.3336 106.114C41.3945 106.757 40.4229 107.441 39.8875 108.445C39.3521 109.449 39.4154 110.871 40.3339 111.541C41.179 112.157 42.4055 111.912 43.259 111.31C44.1126 110.708 44.7096 109.817 45.399 109.032C46.8718 107.355 48.7876 106.144 50.6453 104.904C51.3347 104.444 52.0275 103.97 52.5646 103.339C53.1017 102.708 53.4712 101.892 53.396 101.066C53.0949 97.706 50.6197 100.227 49.6139 101.153C47.5304 103.07 44.6737 104.507 42.3336 106.114Z" fill="url(#paint29_linear_97_11029)"/>
<path d="M40.079 165.625C39.7129 165.625 39.3554 165.479 39.0903 165.211L27.6379 153.534C27.2924 153.182 27.1607 152.674 27.2924 152.198C27.4224 151.723 27.797 151.353 28.2725 151.227L42.0445 147.587C42.4943 147.467 42.975 147.583 43.3223 147.894C43.6695 148.206 43.8354 148.671 43.767 149.131L41.4475 164.448C41.3688 164.966 41.0044 165.395 40.5049 165.556C40.3647 165.602 40.221 165.625 40.079 165.625ZM31.2798 153.295L39.1262 161.294L40.7153 150.801L31.2798 153.295Z" fill="url(#paint30_linear_97_11029)"/>
<path d="M278.262 135.766C277.977 135.766 277.703 135.621 277.546 135.371C277.346 135.053 277.378 134.643 277.624 134.36L287.014 123.649C287.24 123.39 287.601 123.295 287.926 123.406L300.88 127.826C301.23 127.946 301.463 128.281 301.453 128.652C301.443 129.023 301.193 129.345 300.835 129.446L278.493 135.737C278.416 135.756 278.339 135.766 278.262 135.766ZM287.915 125.192L280.786 133.327L297.753 128.55L287.915 125.192Z" fill="#82FDB8"/>
<path d="M81.5727 41.1387C80.9637 40.1791 81.2494 38.9081 82.209 38.2992C86.0424 35.8701 89.2481 36.4449 91.8242 36.9067C94.1729 37.3275 96.0288 37.6611 98.5109 36.0891C100.993 34.517 101.484 32.697 102.107 30.3928C102.789 27.8663 103.638 24.7222 107.473 22.2932C111.306 19.8642 114.512 20.4389 117.088 20.9025C119.436 21.325 121.292 21.6569 123.773 20.0849C126.253 18.5128 126.746 16.6928 127.367 14.3886C128.049 11.8621 128.898 8.71802 132.731 6.28899C136.565 3.85996 139.77 4.43471 142.346 4.89828C144.695 5.3208 146.551 5.65265 149.031 4.08062C149.991 3.47166 151.262 3.75732 151.871 4.71696C152.48 5.6766 152.194 6.94756 151.235 7.55653C147.401 9.98556 144.195 9.4108 141.619 8.94724C139.271 8.52472 137.415 8.19287 134.934 9.7649C132.454 11.3369 131.961 13.157 131.34 15.4611C130.658 17.9877 129.809 21.1317 125.976 23.5608C122.143 25.9898 118.937 25.415 116.361 24.9515C114.012 24.5289 112.156 24.1971 109.676 25.7691C107.194 27.3412 106.703 29.1612 106.08 31.4654C105.398 33.9919 104.549 37.136 100.714 39.565C96.8807 41.994 93.6751 41.4193 91.0989 40.9574C88.7503 40.5366 86.8943 40.203 84.4123 41.7751C83.4526 42.3823 82.1817 42.0984 81.5727 41.1387Z" fill="#82FDB8"/>
<path d="M160.92 56.2945C163.315 59.0246 164.921 43.6174 158.424 43.9082C151.927 44.199 144.603 51.5819 151.286 50.1073C156.938 48.8603 157.095 51.936 160.92 56.2945Z" fill="#86E29B"/>
<path d="M188.067 30.3996C186.738 30.3996 185.395 30.0455 184.18 29.3049C180.665 27.1547 179.553 22.5463 181.703 19.0294C183.854 15.5141 188.462 14.4023 191.979 16.5525C195.494 18.7027 196.606 23.311 194.456 26.8279C193.048 29.1287 190.587 30.3996 188.067 30.3996ZM188.089 17.5395C186.272 17.5395 184.497 18.4563 183.482 20.1156C181.933 22.6507 182.733 25.9761 185.27 27.5259C187.807 29.0756 191.131 28.2751 192.68 25.7383C194.23 23.2032 193.43 19.8778 190.893 18.328C190.015 17.7943 189.045 17.5395 188.089 17.5395Z" fill="#FFB0EB"/>
<path d="M12.3915 104.774C11.4319 104.774 10.4603 104.519 9.58276 103.982C7.04083 102.429 6.23857 99.0967 7.79178 96.5547C9.34499 94.0128 12.6772 93.2106 15.2191 94.7638C16.4508 95.5164 17.3146 96.7036 17.6533 98.1062C17.992 99.5089 17.7628 100.959 17.0101 102.191C15.9923 103.856 14.2133 104.774 12.3915 104.774ZM12.4069 95.4788C11.0949 95.4788 9.81198 96.1408 9.07814 97.3416C8.53588 98.2294 8.37167 99.2746 8.61457 100.286C8.85918 101.296 9.48184 102.153 10.3696 102.696C12.2017 103.816 14.6033 103.236 15.7238 101.404C16.266 100.516 16.4302 99.4713 16.1873 98.4603C15.9427 97.4494 15.3201 96.5924 14.4323 96.0501C13.7994 95.6635 13.0997 95.4788 12.4069 95.4788Z" fill="#FFD23D"/>
<path d="M301.91 43.7285C303.064 43.7285 304 42.7926 304 41.6381C304 40.4837 303.064 39.5478 301.91 39.5478C300.755 39.5478 299.819 40.4837 299.819 41.6381C299.819 42.7926 300.755 43.7285 301.91 43.7285Z" fill="url(#paint31_linear_97_11029)"/>
<path d="M42.397 70.5726C43.5514 70.5726 44.4873 69.6368 44.4873 68.4823C44.4873 67.3278 43.5514 66.392 42.397 66.392C41.2425 66.392 40.3066 67.3278 40.3066 68.4823C40.3066 69.6368 41.2425 70.5726 42.397 70.5726Z" fill="url(#paint32_linear_97_11029)"/>
<path d="M61.6769 177.922C62.8313 177.922 63.7672 176.986 63.7672 175.832C63.7672 174.677 62.8313 173.742 61.6769 173.742C60.5224 173.742 59.5865 174.677 59.5865 175.832C59.5865 176.986 60.5224 177.922 61.6769 177.922Z" fill="url(#paint33_linear_97_11029)"/>
<path d="M143.881 41.6383C145.035 41.6383 145.971 40.7024 145.971 39.548C145.971 38.3935 145.035 37.4576 143.881 37.4576C142.726 37.4576 141.79 38.3935 141.79 39.548C141.79 40.7024 142.726 41.6383 143.881 41.6383Z" fill="url(#paint34_linear_97_11029)"/>
<path d="M273.723 130.495C274.877 130.495 275.813 129.559 275.813 128.404C275.813 127.25 274.877 126.314 273.723 126.314C272.568 126.314 271.632 127.25 271.632 128.404C271.632 129.559 272.568 130.495 273.723 130.495Z" fill="url(#paint35_linear_97_11029)"/>
<path d="M243.052 132.78C242.883 132.78 242.715 132.742 242.559 132.667L233.515 128.288C233.101 128.088 232.85 127.657 232.879 127.197C232.908 126.736 233.213 126.341 233.649 126.196L246.104 122.037C246.521 121.899 246.981 122.013 247.284 122.333C247.587 122.653 247.676 123.12 247.511 123.529L244.102 132.067C243.986 132.357 243.753 132.588 243.461 132.701C243.329 132.754 243.19 132.78 243.052 132.78ZM237.002 127.462L242.451 130.101L244.506 124.956L237.002 127.462Z" fill="url(#paint36_linear_97_11029)"/>
<path d="M233.293 42.1703C244.261 40.7745 245.804 45.9917 237.173 54.3993C228.541 62.8068 227.881 56.7582 229.774 51.6538C231.668 46.5494 228.84 46.4981 224.971 47.4663C221.098 48.4345 221.757 45.0971 233.293 42.1703Z" fill="#75C4FD"/>
</g>
<defs>
<filter id="filter0_d_97_11029" x="0" y="0" width="311" height="271.523" filterUnits="userSpaceOnUse" color-interpolation-filters="sRGB">
<feFlood flood-opacity="0" result="BackgroundImageFix"/>
<feColorMatrix in="SourceAlpha" type="matrix" values="0 0 0 0 0 0 0 0 0 0 0 0 0 0 0 0 0 0 127 0" result="hardAlpha"/>
<feOffset dy="4"/>
<feGaussianBlur stdDeviation="3.5"/>
<feComposite in2="hardAlpha" operator="out"/>
<feColorMatrix type="matrix" values="0 0 0 0 0 0 0 0 0 0 0 0 0 0 0 0 0 0 0.2 0"/>
<feBlend mode="normal" in2="BackgroundImageFix" result="effect1_dropShadow_97_11029"/>
<feBlend mode="normal" in="SourceGraphic" in2="effect1_dropShadow_97_11029" result="shape"/>
</filter>
<linearGradient id="paint0_linear_97_11029" x1="194.155" y1="34.5069" x2="289.012" y2="34.5069" gradientUnits="userSpaceOnUse">
<stop stop-color="#FFE466"/>
<stop offset="1" stop-color="#FFAFEA"/>
</linearGradient>
<linearGradient id="paint1_linear_97_11029" x1="197.346" y1="140.046" x2="239.781" y2="140.046" gradientUnits="userSpaceOnUse">
<stop stop-color="#FFE466"/>
<stop offset="1" stop-color="#FFAFEA"/>
</linearGradient>
<linearGradient id="paint2_linear_97_11029" x1="194.154" y1="129.267" x2="213.377" y2="123.347" gradientUnits="userSpaceOnUse">
<stop stop-color="#FFE466"/>
<stop offset="1" stop-color="#FFAFEA"/>
</linearGradient>
<linearGradient id="paint3_linear_97_11029" x1="257.939" y1="89.3001" x2="284.09" y2="89.3001" gradientUnits="userSpaceOnUse">
<stop stop-color="#FFE466"/>
<stop offset="1" stop-color="#FFAFEA"/>
</linearGradient>
<linearGradient id="paint4_linear_97_11029" x1="31.8998" y1="131.414" x2="50.9486" y2="131.414" gradientUnits="userSpaceOnUse">
<stop stop-color="#75C3FC"/>
<stop offset="0.0929" stop-color="#81C2F6"/>
<stop offset="1" stop-color="#F0B8BD"/>
</linearGradient>
<linearGradient id="paint5_linear_97_11029" x1="7.75181" y1="141.747" x2="42.1915" y2="141.747" gradientUnits="userSpaceOnUse">
<stop stop-color="#75C3FC"/>
<stop offset="0.0929" stop-color="#81C2F6"/>
<stop offset="1" stop-color="#F0B8BD"/>
</linearGradient>
<linearGradient id="paint6_linear_97_11029" x1="64.5675" y1="66.7854" x2="137.816" y2="66.7854" gradientUnits="userSpaceOnUse">
<stop stop-color="#75C3FC"/>
<stop offset="0.0929" stop-color="#81C2F6"/>
<stop offset="1" stop-color="#F0B8BD"/>
</linearGradient>
<linearGradient id="paint7_linear_97_11029" x1="286.488" y1="122.042" x2="231.387" y2="122.042" gradientUnits="userSpaceOnUse">
<stop stop-color="#FFE466"/>
<stop offset="1" stop-color="#FFAFEA"/>
</linearGradient>
<linearGradient id="paint8_linear_97_11029" x1="137.521" y1="138.447" x2="80.2553" y2="193.909" gradientUnits="userSpaceOnUse">
<stop stop-color="#FFE466"/>
<stop offset="1" stop-color="#FFAFEA"/>
</linearGradient>
<linearGradient id="paint9_linear_97_11029" x1="120.491" y1="197.437" x2="59.1709" y2="197.437" gradientUnits="userSpaceOnUse">
<stop stop-color="#FFE466"/>
<stop offset="1" stop-color="#FFAFEA"/>
</linearGradient>
<linearGradient id="paint10_linear_97_11029" x1="138.684" y1="119.004" x2="138.684" y2="218.422" gradientUnits="userSpaceOnUse">
<stop stop-color="#BBC0C5"/>
<stop offset="0.5694" stop-color="#CFD3D6"/>
<stop offset="0.9989" stop-color="white" stop-opacity="0"/>
</linearGradient>
<linearGradient id="paint11_linear_97_11029" x1="129.017" y1="129.666" x2="71.7509" y2="185.128" gradientUnits="userSpaceOnUse">
<stop stop-color="#FFE466"/>
<stop offset="1" stop-color="#FFAFEA"/>
</linearGradient>
<linearGradient id="paint12_linear_97_11029" x1="127.782" y1="129.562" x2="198.522" y2="129.562" gradientUnits="userSpaceOnUse">
<stop stop-color="#FFE466"/>
<stop offset="1" stop-color="#FFAFEA"/>
</linearGradient>
<linearGradient id="paint13_linear_97_11029" x1="127.783" y1="221.953" x2="198.522" y2="221.953" gradientUnits="userSpaceOnUse">
<stop stop-color="#FFE466"/>
<stop offset="1" stop-color="#FFAFEA"/>
</linearGradient>
<linearGradient id="paint14_linear_97_11029" x1="201.156" y1="120.903" x2="125.608" y2="120.903" gradientUnits="userSpaceOnUse">
<stop stop-color="#75C3FC"/>
<stop offset="0.0929" stop-color="#81C2F6"/>
<stop offset="1" stop-color="#F0B8BD"/>
</linearGradient>
<linearGradient id="paint15_linear_97_11029" x1="201.156" y1="241.202" x2="125.608" y2="241.202" gradientUnits="userSpaceOnUse">
<stop stop-color="#75C3FC"/>
<stop offset="0.0929" stop-color="#81C2F6"/>
<stop offset="1" stop-color="#F0B8BD"/>
</linearGradient>
<linearGradient id="paint16_linear_97_11029" x1="131.674" y1="171.265" x2="183.294" y2="171.265" gradientUnits="userSpaceOnUse">
<stop stop-color="#FFE466"/>
<stop offset="1" stop-color="#FFAFEA"/>
</linearGradient>
<linearGradient id="paint17_linear_97_11029" x1="147.826" y1="152.483" x2="198.521" y2="152.483" gradientUnits="userSpaceOnUse">
<stop stop-color="#FFE466"/>
<stop offset="1" stop-color="#FFAFEA"/>
</linearGradient>
<linearGradient id="paint18_linear_97_11029" x1="122.972" y1="216.267" x2="122.972" y2="327.708" gradientUnits="userSpaceOnUse">
<stop stop-color="#CFD3D6"/>
<stop offset="0.6349" stop-color="#F3F4F5"/>
<stop offset="1" stop-color="white" stop-opacity="0"/>
</linearGradient>
<linearGradient id="paint19_linear_97_11029" x1="122.721" y1="216.267" x2="122.721" y2="327.708" gradientUnits="userSpaceOnUse">
<stop stop-color="#CFD3D6"/>
<stop offset="0.6349" stop-color="#F3F4F5"/>
<stop offset="1" stop-color="white" stop-opacity="0"/>
</linearGradient>
<linearGradient id="paint20_linear_97_11029" x1="123.223" y1="216.267" x2="123.223" y2="327.708" gradientUnits="userSpaceOnUse">
<stop stop-color="#CFD3D6"/>
<stop offset="0.6349" stop-color="#F3F4F5"/>
<stop offset="1" stop-color="white" stop-opacity="0"/>
</linearGradient>
<linearGradient id="paint21_linear_97_11029" x1="207.556" y1="220.197" x2="207.556" y2="309.795" gradientUnits="userSpaceOnUse">
<stop stop-color="#BBC0C5"/>
<stop offset="0.5694" stop-color="#CFD3D6"/>
<stop offset="0.9989" stop-color="white" stop-opacity="0"/>
</linearGradient>
<linearGradient id="paint22_linear_97_11029" x1="132.429" y1="133.189" x2="75.1632" y2="188.652" gradientUnits="userSpaceOnUse">
<stop stop-color="#FFE466"/>
<stop offset="1" stop-color="#FFAFEA"/>
</linearGradient>
<linearGradient id="paint23_linear_97_11029" x1="76.3608" y1="201.351" x2="50.3876" y2="201.351" gradientUnits="userSpaceOnUse">
<stop stop-color="#FFE466"/>
<stop offset="1" stop-color="#FFAFEA"/>
</linearGradient>
<linearGradient id="paint24_linear_97_11029" x1="22.7493" y1="113.368" x2="61.6772" y2="113.368" gradientUnits="userSpaceOnUse">
<stop stop-color="#75C3FC"/>
<stop offset="0.0929" stop-color="#81C2F6"/>
<stop offset="1" stop-color="#F0B8BD"/>
</linearGradient>
<linearGradient id="paint25_linear_97_11029" x1="61.6046" y1="83.0934" x2="81.7005" y2="83.0934" gradientUnits="userSpaceOnUse">
<stop stop-color="#75C3FC"/>
<stop offset="0.0929" stop-color="#81C2F6"/>
<stop offset="1" stop-color="#F0B8BD"/>
</linearGradient>
<linearGradient id="paint26_linear_97_11029" x1="88.5082" y1="212.117" x2="76.1525" y2="212.117" gradientUnits="userSpaceOnUse">
<stop stop-color="#FFE466"/>
<stop offset="1" stop-color="#FFAFEA"/>
</linearGradient>
<linearGradient id="paint27_linear_97_11029" x1="258.235" y1="142.958" x2="237.654" y2="147.668" gradientUnits="userSpaceOnUse">
<stop stop-color="#FFE466"/>
<stop offset="1" stop-color="#FFAFEA"/>
</linearGradient>
<linearGradient id="paint28_linear_97_11029" x1="265.019" y1="56.6281" x2="294.91" y2="56.6281" gradientUnits="userSpaceOnUse">
<stop stop-color="#FFE466"/>
<stop offset="1" stop-color="#FFAFEA"/>
</linearGradient>
<linearGradient id="paint29_linear_97_11029" x1="39.5488" y1="105.636" x2="53.405" y2="105.636" gradientUnits="userSpaceOnUse">
<stop stop-color="#75C3FC"/>
<stop offset="0.0929" stop-color="#81C2F6"/>
<stop offset="1" stop-color="#F0B8BD"/>
</linearGradient>
<linearGradient id="paint30_linear_97_11029" x1="34.5007" y1="148.47" x2="41.9948" y2="164.982" gradientUnits="userSpaceOnUse">
<stop stop-color="#FFE466"/>
<stop offset="1" stop-color="#FFAFEA"/>
</linearGradient>
<linearGradient id="paint31_linear_97_11029" x1="299.82" y1="41.6379" x2="304" y2="41.6379" gradientUnits="userSpaceOnUse">
<stop stop-color="#75C3FC"/>
<stop offset="1" stop-color="#75C3FC"/>
</linearGradient>
<linearGradient id="paint32_linear_97_11029" x1="40.3076" y1="68.4831" x2="44.4879" y2="68.4831" gradientUnits="userSpaceOnUse">
<stop stop-color="#75C3FC"/>
<stop offset="1" stop-color="#75C3FC"/>
</linearGradient>
<linearGradient id="paint33_linear_97_11029" x1="59.587" y1="175.831" x2="63.7674" y2="175.831" gradientUnits="userSpaceOnUse">
<stop stop-color="#75C3FC"/>
<stop offset="1" stop-color="#75C3FC"/>
</linearGradient>
<linearGradient id="paint34_linear_97_11029" x1="141.79" y1="39.5479" x2="145.97" y2="39.5479" gradientUnits="userSpaceOnUse">
<stop stop-color="#75C3FC"/>
<stop offset="1" stop-color="#75C3FC"/>
</linearGradient>
<linearGradient id="paint35_linear_97_11029" x1="271.633" y1="128.403" x2="275.814" y2="128.403" gradientUnits="userSpaceOnUse">
<stop stop-color="#75C3FC"/>
<stop offset="1" stop-color="#75C3FC"/>
</linearGradient>
<linearGradient id="paint36_linear_97_11029" x1="232.876" y1="127.38" x2="247.592" y2="127.38" gradientUnits="userSpaceOnUse">
<stop stop-color="#75C3FC"/>
<stop offset="0.0929" stop-color="#81C2F6"/>
<stop offset="1" stop-color="#F0B8BD"/>
</linearGradient>
</defs>
</svg>
