<svg width="1224" height="272" viewBox="0 0 1224 272" fill="none" xmlns="http://www.w3.org/2000/svg">
<g filter="url(#filter0_i_31_1364)">
<rect y="13" width="1224" height="213" rx="8" fill="url(#paint0_linear_31_1364)"/>
</g>
<path d="M32.4414 162.6H38.2414L47.0814 174.84L56.0014 162.6H61.8014V191H55.4014V173.52L47.1214 184.96L38.8014 173.48V191H32.4414V162.6ZM76.2052 191.44C73.1918 191.44 70.6585 190.493 68.6052 188.6C66.5785 186.68 65.5652 184.147 65.5652 181C65.5652 178.013 66.5652 175.533 68.5652 173.56C70.5652 171.56 73.0718 170.56 76.0852 170.56C78.8852 170.56 81.2452 171.413 83.1652 173.12C85.0852 174.827 86.0452 177.227 86.0452 180.32C86.0452 181.093 86.0052 181.8 85.9252 182.44H71.4052C71.5652 183.587 72.1118 184.467 73.0452 185.08C73.9785 185.667 75.0585 185.96 76.2852 185.96C77.3785 185.96 78.3518 185.747 79.2052 185.32C80.0585 184.867 80.6985 184.32 81.1252 183.68L85.6052 187.04C84.6452 188.4 83.3518 189.48 81.7252 190.28C80.0985 191.053 78.2585 191.44 76.2052 191.44ZM71.5652 178.48H80.0452C79.8052 177.493 79.2985 176.747 78.5252 176.24C77.7518 175.733 76.8852 175.48 75.9252 175.48C74.9118 175.48 73.9918 175.733 73.1652 176.24C72.3385 176.72 71.8052 177.467 71.5652 178.48ZM99.6605 191.24C97.3138 191.24 95.3805 190.6 93.8605 189.32C92.3671 188.013 91.6205 186.133 91.6205 183.68V176.24H87.6205V171H91.6205V165.44H97.6605V171H103.26V176.24H97.6605V182.44C97.6605 183.64 97.9271 184.507 98.4605 185.04C98.9938 185.573 99.8605 185.84 101.06 185.84C101.967 185.84 102.7 185.72 103.26 185.48V190.84C102.38 191.107 101.18 191.24 99.6605 191.24ZM114.884 191.44C112.298 191.44 110.098 190.413 108.284 188.36C106.498 186.307 105.604 183.853 105.604 181C105.604 178.147 106.498 175.693 108.284 173.64C110.098 171.587 112.298 170.56 114.884 170.56C117.178 170.56 118.991 171.373 120.324 173V171H126.364V191H120.324V189C118.991 190.627 117.178 191.44 114.884 191.44ZM112.924 184.56C113.778 185.493 114.884 185.96 116.244 185.96C117.604 185.96 118.698 185.493 119.524 184.56C120.378 183.627 120.804 182.44 120.804 181C120.804 179.56 120.378 178.373 119.524 177.44C118.698 176.507 117.604 176.04 116.244 176.04C114.884 176.04 113.778 176.507 112.924 177.44C112.098 178.373 111.684 179.56 111.684 181C111.684 182.44 112.098 183.627 112.924 184.56ZM131.387 162.6H137.187L146.027 174.84L154.947 162.6H160.747V191H154.347V173.52L146.067 184.96L137.747 173.48V191H131.387V162.6ZM173.79 191.44C171.204 191.44 169.004 190.413 167.19 188.36C165.404 186.307 164.51 183.853 164.51 181C164.51 178.147 165.404 175.693 167.19 173.64C169.004 171.587 171.204 170.56 173.79 170.56C176.084 170.56 177.897 171.373 179.23 173V171H185.27V191H179.23V189C177.897 190.627 176.084 191.44 173.79 191.44ZM171.83 184.56C172.684 185.493 173.79 185.96 175.15 185.96C176.51 185.96 177.604 185.493 178.43 184.56C179.284 183.627 179.71 182.44 179.71 181C179.71 179.56 179.284 178.373 178.43 177.44C177.604 176.507 176.51 176.04 175.15 176.04C173.79 176.04 172.684 176.507 171.83 177.44C171.004 178.373 170.59 179.56 170.59 181C170.59 182.44 171.004 183.627 171.83 184.56ZM197.122 191.44C193.415 191.44 190.642 190.24 188.802 187.84L192.802 184.2C193.762 185.587 195.202 186.28 197.122 186.28C198.348 186.28 198.962 185.907 198.962 185.16C198.962 184.813 198.802 184.533 198.482 184.32C198.162 184.08 197.508 183.84 196.522 183.6L195.202 183.28C193.308 182.827 191.868 182.027 190.882 180.88C189.922 179.733 189.468 178.347 189.522 176.72C189.575 174.88 190.308 173.4 191.722 172.28C193.162 171.133 194.988 170.56 197.202 170.56C200.295 170.56 202.642 171.667 204.242 173.88L200.322 177.12C199.468 176.053 198.415 175.52 197.162 175.52C196.068 175.52 195.522 175.867 195.522 176.56C195.522 177.2 196.082 177.68 197.202 178L199.042 178.48C200.962 178.987 202.415 179.747 203.402 180.76C204.415 181.747 204.922 183.093 204.922 184.8C204.922 186.693 204.162 188.28 202.642 189.56C201.148 190.813 199.308 191.44 197.122 191.44ZM222.159 191L214.719 182.08V191H208.679V161H214.719V178.16L220.559 171H227.719L220.359 180.04L229.479 191H222.159ZM248.304 191.48C246.064 191.48 244.024 191.04 242.184 190.16C240.371 189.253 238.904 188 237.784 186.4L242.664 182.28C243.358 183.267 244.238 184.053 245.304 184.64C246.398 185.227 247.478 185.52 248.544 185.52C249.584 185.52 250.411 185.307 251.024 184.88C251.664 184.427 251.984 183.853 251.984 183.16C251.984 182.44 251.678 181.813 251.064 181.28C250.451 180.747 249.438 180.24 248.024 179.76L246.024 179.08C241.251 177.48 238.864 174.747 238.864 170.88C238.864 168.187 239.771 166.053 241.584 164.48C243.424 162.907 245.784 162.12 248.664 162.12C252.344 162.12 255.398 163.427 257.824 166.04L253.664 170.44C252.358 168.867 250.718 168.08 248.744 168.08C247.811 168.08 246.998 168.267 246.304 168.64C245.638 169.013 245.304 169.547 245.304 170.24C245.304 170.96 245.624 171.547 246.264 172C246.904 172.427 248.051 172.933 249.704 173.52L251.704 174.24C256.238 175.867 258.491 178.693 258.464 182.72C258.464 185.307 257.504 187.413 255.584 189.04C253.691 190.667 251.264 191.48 248.304 191.48ZM262.039 191V171H268.079V173.04C269.225 171.387 271.079 170.56 273.639 170.56C276.065 170.56 277.959 171.373 279.319 173C280.705 174.627 281.399 176.773 281.399 179.44V191H275.359V180.48C275.359 177.52 274.279 176.04 272.119 176.04C270.919 176.04 269.945 176.48 269.199 177.36C268.452 178.24 268.079 179.547 268.079 181.28V191H262.039ZM294.181 191.44C291.594 191.44 289.394 190.413 287.581 188.36C285.794 186.307 284.901 183.853 284.901 181C284.901 178.147 285.794 175.693 287.581 173.64C289.394 171.587 291.594 170.56 294.181 170.56C296.474 170.56 298.288 171.373 299.621 173V171H305.661V191H299.621V189C298.288 190.627 296.474 191.44 294.181 191.44ZM292.221 184.56C293.074 185.493 294.181 185.96 295.541 185.96C296.901 185.96 297.994 185.493 298.821 184.56C299.674 183.627 300.101 182.44 300.101 181C300.101 179.56 299.674 178.373 298.821 177.44C297.994 176.507 296.901 176.04 295.541 176.04C294.181 176.04 293.074 176.507 292.221 177.44C291.394 178.373 290.981 179.56 290.981 181C290.981 182.44 291.394 183.627 292.221 184.56ZM316.672 199.36H310.632V171H316.672V173C317.099 172.36 317.806 171.8 318.792 171.32C319.779 170.813 320.886 170.56 322.112 170.56C324.699 170.56 326.886 171.587 328.672 173.64C330.486 175.693 331.392 178.147 331.392 181C331.392 183.853 330.486 186.307 328.672 188.36C326.886 190.413 324.699 191.44 322.112 191.44C320.886 191.44 319.779 191.2 318.792 190.72C317.806 190.213 317.099 189.64 316.672 189V199.36ZM317.432 184.56C318.286 185.493 319.392 185.96 320.752 185.96C322.112 185.96 323.206 185.493 324.032 184.56C324.886 183.627 325.312 182.44 325.312 181C325.312 179.56 324.886 178.373 324.032 177.44C323.206 176.507 322.112 176.04 320.752 176.04C319.392 176.04 318.286 176.507 317.432 177.44C316.606 178.373 316.192 179.56 316.192 181C316.192 182.44 316.606 183.627 317.432 184.56ZM341.848 191.44C338.142 191.44 335.368 190.24 333.528 187.84L337.528 184.2C338.488 185.587 339.928 186.28 341.848 186.28C343.075 186.28 343.688 185.907 343.688 185.16C343.688 184.813 343.528 184.533 343.208 184.32C342.888 184.08 342.235 183.84 341.248 183.6L339.928 183.28C338.035 182.827 336.595 182.027 335.608 180.88C334.648 179.733 334.195 178.347 334.248 176.72C334.302 174.88 335.035 173.4 336.448 172.28C337.888 171.133 339.715 170.56 341.928 170.56C345.022 170.56 347.368 171.667 348.968 173.88L345.048 177.12C344.195 176.053 343.142 175.52 341.888 175.52C340.795 175.52 340.248 175.867 340.248 176.56C340.248 177.2 340.808 177.68 341.928 178L343.768 178.48C345.688 178.987 347.142 179.747 348.128 180.76C349.142 181.747 349.648 183.093 349.648 184.8C349.648 186.693 348.888 188.28 347.368 189.56C345.875 190.813 344.035 191.44 341.848 191.44ZM362.91 191V162.6H380.91V168.68H369.27V173.76H378.51V179.84H369.27V184.92H380.91V191H362.91ZM398.562 191L394.322 185.56L390.082 191H382.842L390.522 181.32L382.922 171H390.042L394.282 176.84L398.522 171H405.722L398.122 181.32L405.762 191H398.562ZM414.368 199.36H408.328V171H414.368V173C414.794 172.36 415.501 171.8 416.488 171.32C417.474 170.813 418.581 170.56 419.808 170.56C422.394 170.56 424.581 171.587 426.368 173.64C428.181 175.693 429.088 178.147 429.088 181C429.088 183.853 428.181 186.307 426.368 188.36C424.581 190.413 422.394 191.44 419.808 191.44C418.581 191.44 417.474 191.2 416.488 190.72C415.501 190.213 414.794 189.64 414.368 189V199.36ZM415.128 184.56C415.981 185.493 417.088 185.96 418.448 185.96C419.808 185.96 420.901 185.493 421.728 184.56C422.581 183.627 423.008 182.44 423.008 181C423.008 179.56 422.581 178.373 421.728 177.44C420.901 176.507 419.808 176.04 418.448 176.04C417.088 176.04 415.981 176.507 415.128 177.44C414.301 178.373 413.888 179.56 413.888 181C413.888 182.44 414.301 183.627 415.128 184.56ZM432.859 191V161H438.899V191H432.859ZM460.595 188.44C458.541 190.44 456.061 191.44 453.155 191.44C450.248 191.44 447.768 190.44 445.715 188.44C443.661 186.413 442.635 183.933 442.635 181C442.635 178.067 443.661 175.6 445.715 173.6C447.768 171.573 450.248 170.56 453.155 170.56C456.061 170.56 458.541 171.573 460.595 173.6C462.648 175.6 463.675 178.067 463.675 181C463.675 183.933 462.648 186.413 460.595 188.44ZM449.955 184.48C450.808 185.36 451.875 185.8 453.155 185.8C454.435 185.8 455.488 185.36 456.315 184.48C457.168 183.6 457.595 182.44 457.595 181C457.595 179.56 457.168 178.4 456.315 177.52C455.488 176.64 454.435 176.2 453.155 176.2C451.875 176.2 450.808 176.64 449.955 177.52C449.128 178.4 448.715 179.56 448.715 181C448.715 182.44 449.128 183.6 449.955 184.48ZM467.39 191V171H473.43V174C473.75 173.093 474.35 172.333 475.23 171.72C476.11 171.08 477.097 170.76 478.19 170.76C478.883 170.76 479.537 170.84 480.15 171V177.12C479.217 176.8 478.323 176.64 477.47 176.64C476.19 176.64 475.19 177.093 474.47 178C473.777 178.88 473.43 180.053 473.43 181.52V191H467.39ZM492.26 191.44C489.247 191.44 486.713 190.493 484.66 188.6C482.633 186.68 481.62 184.147 481.62 181C481.62 178.013 482.62 175.533 484.62 173.56C486.62 171.56 489.127 170.56 492.14 170.56C494.94 170.56 497.3 171.413 499.22 173.12C501.14 174.827 502.1 177.227 502.1 180.32C502.1 181.093 502.06 181.8 501.98 182.44H487.46C487.62 183.587 488.167 184.467 489.1 185.08C490.033 185.667 491.113 185.96 492.34 185.96C493.433 185.96 494.407 185.747 495.26 185.32C496.113 184.867 496.753 184.32 497.18 183.68L501.66 187.04C500.7 188.4 499.407 189.48 497.78 190.28C496.153 191.053 494.313 191.44 492.26 191.44ZM487.62 178.48H496.1C495.86 177.493 495.353 176.747 494.58 176.24C493.807 175.733 492.94 175.48 491.98 175.48C490.967 175.48 490.047 175.733 489.22 176.24C488.393 176.72 487.86 177.467 487.62 178.48ZM505.906 191V171H511.946V174C512.266 173.093 512.866 172.333 513.746 171.72C514.626 171.08 515.612 170.76 516.706 170.76C517.399 170.76 518.052 170.84 518.666 171V177.12C517.732 176.8 516.839 176.64 515.986 176.64C514.706 176.64 513.706 177.093 512.986 178C512.292 178.88 511.946 180.053 511.946 181.52V191H505.906Z" fill="white"/>
<path d="M768.67 175.001C768.068 176.712 766.164 177.603 764.453 177.001C757.585 174.567 755.151 169.942 753.175 166.231C751.391 162.858 749.97 160.184 745.535 158.593C741.101 157.027 738.306 158.184 734.787 159.678C730.931 161.316 726.112 163.34 719.243 160.906C712.375 158.473 709.941 153.847 707.989 150.137C706.206 146.763 704.784 144.089 700.35 142.499C695.916 140.933 693.12 142.089 689.602 143.583C685.746 145.221 680.926 147.269 674.082 144.812C667.214 142.378 664.78 137.752 662.828 134.042C661.044 130.669 659.623 127.994 655.188 126.404C653.477 125.802 652.586 123.899 653.188 122.188C653.791 120.477 655.694 119.586 657.405 120.188C664.274 122.622 666.708 127.248 668.66 130.958C670.443 134.331 671.865 137.005 676.299 138.596C680.733 140.162 683.529 139.005 687.047 137.511C690.903 135.873 695.723 133.849 702.567 136.283C709.435 138.716 711.869 143.342 713.821 147.053C715.604 150.426 717.026 153.1 721.461 154.69C725.895 156.256 728.69 155.1 732.209 153.606C736.064 151.968 740.884 149.944 747.752 152.377C754.621 154.811 757.055 159.437 759.031 163.147C760.814 166.52 762.236 169.195 766.67 170.785C768.381 171.387 769.273 173.266 768.67 175.001Z" fill="#83FEB9"/>
<path d="M425.821 102.345C430.298 116.248 460.866 61.9866 436.432 52.6759C411.997 43.3653 373.158 58.8529 400.166 64.1193C423.006 68.5601 418.671 80.1556 425.821 102.345Z" fill="#B9E0FF"/>
<path d="M781.352 102.507C780.751 102.507 780.151 102.357 779.626 102.095L745.028 84.1617C743.789 83.5239 743.039 82.2859 743.001 80.8978C742.964 79.5097 743.677 78.2341 744.878 77.5213L797.225 46.5326C798.613 45.7073 800.339 45.8573 801.578 46.8703C802.816 47.8832 803.266 49.5715 802.703 51.0721L784.879 99.9937C784.504 101.007 783.716 101.832 782.703 102.207C782.29 102.432 781.802 102.507 781.352 102.507ZM754.559 80.5601L779.288 93.3908L792.009 58.4629L754.559 80.5601Z" fill="url(#paint1_linear_31_1364)"/>
<path d="M146.126 120.241C132.829 120.241 122 109.414 122 96.1206C122 82.8269 132.829 72 146.126 72C159.423 72 170.252 82.8269 170.252 96.1206C170.252 109.414 159.423 120.241 146.126 120.241ZM146.126 78.0302C136.147 78.0302 128.031 86.1435 128.031 96.1206C128.031 106.098 136.147 114.211 146.126 114.211C156.105 114.211 164.22 106.098 164.22 96.1206C164.22 86.1435 156.105 78.0302 146.126 78.0302Z" fill="#FFD33D"/>
<path d="M28.5995 63.1923C19.991 63.1923 13 56.2028 13 47.5961C13 38.9895 19.991 32 28.5995 32C37.2081 32 44.1991 38.9895 44.1991 47.5961C44.1991 56.2028 37.1807 63.1923 28.5995 63.1923ZM28.5995 37.0434C22.7874 37.0434 18.0445 41.7853 18.0445 47.5961C18.0445 53.407 22.7874 58.1489 28.5995 58.1489C34.4117 58.1489 39.1546 53.407 39.1546 47.5961C39.1546 41.7853 34.4117 37.0434 28.5995 37.0434Z" fill="#86E29B"/>
<path d="M249.633 208.264C252.192 208.264 254.267 206.191 254.267 203.632C254.267 201.074 252.192 199 249.633 199C247.074 199 245 201.074 245 203.632C245 206.191 247.074 208.264 249.633 208.264Z" fill="url(#paint2_linear_31_1364)"/>
<g filter="url(#filter1_d_31_1364)">
<path d="M1151.96 25.6869C1144.25 17.3632 1133.03 12.6198 1121.7 11.9852C1110.37 11.3522 1098.99 14.6588 1089.25 20.4919C1085.02 23.2972 1087.15 26.4071 1096.41 23.5162C1101.55 21.9356 1104.2 21.484 1108.12 21.4567C1110.84 21.4378 1111.65 25.2319 1109.13 26.2497C1109.07 26.2754 1109 26.301 1108.94 26.3216C1097.99 30.0062 1086.51 32.076 1074.96 32.442C1072.41 32.5224 1069.64 32.5857 1067.88 34.7838C1067.03 35.841 1066.89 37.336 1067.64 38.4667C1068.53 39.8129 1070.17 39.8591 1071.64 39.789C1083.3 39.2211 1094.52 35.0404 1106.15 33.9713C1121.45 32.5635 1137.17 36.8536 1149.73 45.6631C1151.77 48.3676 1153.73 51.1319 1155.67 53.8774L1161.42 57.1069C1163.58 45.9642 1159.68 34.0106 1151.96 25.6869Z" fill="url(#paint3_linear_31_1364)"/>
<path d="M1070.57 134.776C1081.71 141.795 1096.48 143.774 1108.35 138.077C1109.07 137.732 1109.8 137.359 1110.59 137.287C1111.39 137.217 1112.27 137.532 1112.63 138.247C1112.97 138.948 1112.7 139.831 1112.17 140.406C1111.64 140.98 1110.9 141.312 1110.18 141.61C1097.55 146.827 1082.74 146.516 1070.35 140.772" fill="url(#paint4_linear_31_1364)"/>
<path d="M1072.98 132.22C1076.72 134.571 1080.53 135.573 1084.97 135.89C1086.2 135.977 1087.7 135.908 1088.61 134.944C1088.85 134.687 1089.03 134.384 1089.14 134.061C1089.6 132.752 1088.93 131.321 1087.67 130.727C1083.21 128.609 1077.1 122.279 1074.78 120.395C1073.15 119.066 1074.7 121.967 1073.52 120.282C1072.49 118.821 1071.14 116.914 1069.28 116.488C1066.9 115.946 1065.61 118.51 1065.24 120.431C1064.29 125.317 1069.32 129.913 1072.98 132.22Z" fill="url(#paint5_linear_31_1364)"/>
<path d="M1157.09 80.6787C1155.14 95.1212 1148.67 108.919 1138.81 119.653C1137.68 120.883 1136.32 122.159 1134.65 122.166C1132.02 122.176 1130.45 118.878 1131.08 116.322C1131.7 113.767 1133.69 111.817 1135.41 109.82C1140.3 104.131 1143.49 96.9977 1144.47 89.5601C1144.74 87.4646 1144.14 84.5344 1142.02 84.5686C1138.6 84.6251 1139.96 91.7411 1136.61 92.4065C1135.05 92.7161 1133.66 91.1082 1133.52 89.5259C1133.39 87.9436 1134.09 86.428 1134.67 84.9501C1138.29 75.6958 1137.11 64.7139 1131.62 56.4346L1157.09 80.6787Z" fill="url(#paint6_linear_31_1364)"/>
<path d="M923.948 122.152C917.841 126.218 912.763 131.813 909.306 138.283C908.659 139.492 907.65 140.946 906.314 140.635C905.496 140.445 904.969 139.586 904.906 138.748C904.844 137.91 905.147 137.092 905.479 136.319C907.302 132.082 910.156 128.291 913.724 125.368L923.948 122.152Z" fill="url(#paint7_linear_31_1364)"/>
<path d="M906.139 110.664C892.538 121.221 883.236 137.169 880.771 154.212C880.682 154.822 880.901 155.454 881.382 155.84C882.627 156.844 884.141 155.088 884.571 153.598C885.296 151.085 885.539 148.43 886.521 146.006C886.981 144.872 887.66 143.77 888.519 142.891C889.483 141.904 891.09 143.018 890.529 144.28C886.941 152.351 885.072 161.182 885.103 170.014C885.106 170.936 885.162 171.951 886.026 172.512C886.815 173.023 887.848 172.891 888.572 172.293C889.986 171.119 890.048 169.287 890.14 167.595C891.096 149.805 900.604 132.667 915.192 122.441L906.139 110.664Z" fill="url(#paint8_linear_31_1364)"/>
<path d="M945.498 67.8666C956.677 70.4239 967.755 63.5046 976.325 55.8857C984.895 48.2667 993.099 39.2742 1004.17 36.3012C1006.76 35.6067 1010.5 36.0172 1010.8 38.6772C1011.08 41.1661 1008 42.4713 1005.59 43.1401C996.978 45.5281 988.985 50.1159 982.58 56.3493C980.353 58.5166 978.439 62.533 980.996 64.3C984.595 66.7872 988.877 59.613 992.606 59.5925C993.578 59.5874 994.291 60.5214 994.029 61.4571C992.957 65.3059 989.334 68.1762 985.577 69.7893C981.408 71.5803 976.829 72.3227 972.758 74.3241C966.256 77.5212 961.72 83.5544 956.605 88.6861C951.49 93.8179 944.745 98.4279 937.568 97.4289" fill="url(#paint9_linear_31_1364)"/>
<path d="M1148.66 121.408L1148.71 122.677C1148.89 122.263 1148.9 121.81 1148.66 121.408Z" fill="url(#paint10_linear_31_1364)"/>
<path d="M993.716 162.821C990.009 165.423 986.302 168.025 982.596 170.627C981.576 171.342 980.521 172.074 979.304 172.337C978.088 172.601 976.655 172.277 975.964 171.241C975.332 170.293 975.48 168.995 976.012 167.987C976.544 166.98 977.399 166.191 978.204 165.387C981.557 162.043 984.311 158.102 986.301 153.805L993.716 162.821Z" fill="url(#paint11_linear_31_1364)"/>
<path d="M997.751 161.54C990.144 169.903 982.466 178.333 973.283 184.929C971.976 185.868 970.553 186.8 968.947 186.903C967.341 187.005 965.55 185.953 965.421 184.349C965.23 181.934 968.266 180.62 968.028 178.17C967.76 175.409 963.729 173.174 961.186 173.049C955.351 172.761 948.107 179.795 943.894 183.179C942.055 184.655 940.12 186.467 940.004 188.82C939.451 199.936 954.467 183.617 951.829 196.597C951.126 200.055 954.003 203.506 957.417 204.402C960.83 205.298 964.479 204.173 967.549 202.437C970.621 200.7 973.316 198.365 976.338 196.544C978.257 195.386 981.017 194.556 982.505 196.231C984.313 198.264 982.238 201.28 980.69 203.518C977.647 207.917 976.648 213.672 978.03 218.839C978.502 220.603 979.304 222.392 981.035 223.234C981.906 223.656 982.931 223.711 983.788 223.261C985.545 222.339 985.526 220.139 985.038 218.393C984.263 213.855 987.734 214.079 987.842 216.118C988.321 225.056 994.864 231.251 1003.63 233.33L997.751 161.54Z" fill="url(#paint12_linear_31_1364)"/>
<path d="M1022.8 179.735L1038.16 167.361L1002.75 123.409C999.335 119.167 993.127 118.498 988.885 121.916C984.643 125.334 983.974 131.541 987.392 135.784L1022.8 179.735Z" fill="url(#paint13_linear_31_1364)"/>
<path d="M998.658 137.852C995.793 140.116 992.929 142.381 990.064 144.646C989.527 145.07 988.969 145.507 988.307 145.679C987.645 145.854 986.845 145.695 986.463 145.125C985.964 144.379 986.393 143.363 986.952 142.662C988.495 140.732 990.957 139.632 992.267 137.537C993.051 136.283 993.343 134.791 993.952 133.445C995.016 131.091 997.096 129.217 999.549 128.402L998.658 137.852Z" fill="url(#paint14_linear_31_1364)"/>
<path d="M1003.44 260.523H1068.87C1072.63 260.523 1075.67 257.478 1075.67 253.723V104.059C1075.67 100.303 1072.63 97.2595 1068.87 97.2595H1003.44C999.679 97.2595 996.636 100.304 996.636 104.059V253.721C996.634 257.478 999.679 260.523 1003.44 260.523Z" fill="#24292E"/>
<path d="M1050.9 255.48H1021.4V256.6H1050.9V255.48Z" fill="#606060"/>
<path d="M1051.24 101.505H1022.21V102.626H1051.24V101.505Z" fill="#606060"/>
<path d="M1071.52 109.061H1000.78V250.844H1071.52V109.061Z" fill="white"/>
<path d="M1071.52 118.443C1066.97 116.377 1061.67 115.595 1056.72 116.242C1046.27 117.61 1037.14 123.784 1028.66 130.046C1026.28 131.801 1023.18 133.654 1020.58 132.253C1017.27 130.476 1018.28 125.224 1020.98 122.615C1023.67 120.007 1027.46 118.604 1029.76 115.641C1030.32 114.913 1030.8 113.972 1030.52 113.094C1029.89 111.185 1027.03 111.892 1025.33 112.959C1018.99 116.943 1012.64 120.929 1006.3 124.913C1004.54 126.018 1002.72 127.14 1000.78 127.836V137.255C1001.67 136.31 1002.48 135.274 1003.53 134.511C1004.97 133.46 1007.22 133.113 1008.39 134.459C1009.91 136.213 1008.36 138.856 1008.27 141.175C1008.11 145.662 1013.98 148.264 1018.23 146.834C1022.49 145.404 1025.4 141.593 1028.36 138.219C1033.17 132.742 1038.91 127.87 1045.74 125.335C1052.58 122.802 1060.62 122.87 1066.81 126.731C1068.62 127.867 1070.22 129.364 1071.52 131.086V118.443H1071.52Z" fill="url(#paint15_linear_31_1364)"/>
<path d="M1069.94 209.809C1068.02 212.508 1065.79 214.985 1063.31 217.177C1057.93 221.922 1051.38 225.29 1044.35 226.744C1037.26 228.208 1029.86 227.678 1022.93 225.615C1017.05 223.863 1012.1 220.476 1008.33 215.618C1004.72 210.943 1002.36 205.315 1001.27 199.525C1001.05 198.37 1000.89 197.2 1000.78 196.025V234.705C1002.43 236.802 1004.55 238.559 1006.74 240.011C1009.33 241.725 1012.16 243.263 1014.94 244.642C1017.72 246.019 1020.84 247.329 1024.01 247.182C1026.76 247.052 1029.7 245.422 1029 242.24C1028.35 239.84 1026.06 237.813 1022.25 235.343C1021.39 234.787 1021.26 233.567 1022 232.861C1022.01 232.856 1022.02 232.849 1022.02 232.844C1022.68 232.225 1023.81 232.033 1024.72 231.959C1029.59 231.569 1034.25 233.761 1039.08 233.107C1042.5 232.645 1045.88 231.696 1049.33 231.578C1050.47 231.539 1051.99 231.496 1052.93 232.264C1053.91 233.071 1053.78 234.688 1053.33 235.774C1052.98 236.602 1051.06 240.293 1050.81 240.983C1049.98 243.256 1050.12 245.981 1052.43 247.308C1054.96 248.756 1057.77 247.149 1060.01 245.913C1062.76 244.395 1065.2 242.45 1067.4 240.216C1068.91 238.675 1070.32 237.047 1071.53 235.278V207.466C1071.01 208.266 1070.48 209.046 1069.94 209.809Z" fill="url(#paint16_linear_31_1364)"/>
<path d="M1071.52 109.061V118.443C1066.97 116.377 1061.67 115.595 1056.72 116.242C1046.27 117.61 1037.14 123.784 1028.66 130.046C1026.28 131.803 1023.18 133.654 1020.58 132.253C1017.27 130.476 1018.28 125.224 1020.98 122.616C1023.67 120.005 1027.46 118.602 1029.76 115.64C1030.33 114.911 1030.8 113.97 1030.52 113.093C1029.89 111.184 1027.03 111.89 1025.33 112.958C1018.99 116.942 1012.64 120.925 1006.3 124.913C1004.54 126.018 1002.72 127.138 1000.78 127.835V109.061H1071.52Z" fill="url(#paint17_linear_31_1364)"/>
<path d="M1071.52 235.278V250.844H1000.78V234.703C1002.43 236.8 1004.55 238.557 1006.74 240.009C1009.33 241.723 1012.16 243.261 1014.94 244.64C1017.72 246.017 1020.84 247.327 1024.01 247.18C1026.76 247.05 1029.7 245.42 1029 242.238C1028.35 239.838 1026.06 237.811 1022.25 235.341C1021.39 234.785 1021.26 233.566 1022 232.859C1022.01 232.854 1022.02 232.847 1022.02 232.842C1022.68 232.223 1023.81 232.031 1024.72 231.958C1029.59 231.568 1034.25 233.759 1039.08 233.106C1042.5 232.644 1045.88 231.694 1049.33 231.576C1050.47 231.537 1051.99 231.494 1052.93 232.262C1053.91 233.07 1053.78 234.686 1053.33 235.772C1052.98 236.6 1051.06 240.292 1050.81 240.981C1049.98 243.254 1050.12 245.979 1052.43 247.307C1054.96 248.754 1057.77 247.148 1060.01 245.911C1062.76 244.394 1065.2 242.449 1067.4 240.215C1068.9 238.675 1070.31 237.047 1071.52 235.278Z" fill="url(#paint18_linear_31_1364)"/>
<path d="M1004.27 172.883C1005.03 171.295 1005.9 169.771 1006.73 168.223C1008.26 165.346 1009.72 162.318 1009.74 158.986C1009.76 157.301 1009.36 155.079 1007.39 154.723C1005.67 154.412 1003.94 155.648 1002.67 156.647C1002.01 157.166 1001.38 157.725 1000.78 158.319V187.855C1001.07 184.544 1001.67 181.259 1002.49 178.103C1002.96 176.317 1003.48 174.556 1004.27 172.883Z" fill="url(#paint19_linear_31_1364)"/>
<path d="M1068.3 139.879C1069.42 140.241 1070.51 140.734 1071.52 141.343V135.53C1066.11 130.445 1057.43 128.233 1050.42 129.47C1043.75 130.642 1037.95 134.858 1033.23 139.511C1031.02 141.695 1029.08 144.082 1027.1 146.475C1025.55 148.35 1023.95 150.194 1022.67 152.274C1021.5 154.183 1020.3 156.701 1021.07 158.977C1021.83 161.24 1024.37 162.891 1026.72 162.068C1029.05 161.254 1030.67 158.981 1032.03 157.05C1033.73 154.656 1035.45 152.34 1037.67 150.395C1039.96 148.382 1043.83 145.495 1046.67 144.413C1048.55 143.84 1050.3 144.822 1047.47 146.865C1045.91 148.344 1044.07 149.824 1045.1 152.212C1046.36 155.132 1049.38 154.964 1051.96 154.138C1055 153.163 1058.3 152.202 1061.31 153.81C1063.89 155.183 1065.84 157.835 1067.25 160.327C1069.89 164.99 1071.26 170.455 1071.52 175.828V156.822C1069.68 153.43 1067.48 150.231 1064.97 147.304C1064.17 146.377 1063.33 145.457 1062.83 144.34C1062.34 143.223 1062.25 141.842 1062.93 140.83C1064.03 139.217 1066.44 139.282 1068.3 139.879Z" fill="url(#paint20_linear_31_1364)"/>
<path d="M1034.55 209.452C1023.17 207.647 1015.4 196.961 1017.21 185.584C1017.99 180.657 1020.44 176.408 1023.88 173.322C1028.4 169.277 1034.63 167.224 1041.08 168.247C1052.46 170.052 1060.22 180.738 1058.41 192.117C1057.83 195.805 1056.31 199.111 1054.14 201.836C1049.61 207.52 1042.24 210.671 1034.55 209.452Z" fill="#FFD23D"/>
<path d="M1037.8 207.684C1036.82 207.684 1035.84 207.609 1034.86 207.453C1029.89 206.665 1025.53 203.99 1022.57 199.918C1019.61 195.847 1018.42 190.869 1019.21 185.898C1019.88 181.634 1022.02 177.701 1025.23 174.826C1029.48 171.021 1035.14 169.352 1040.76 170.243C1045.73 171.032 1050.1 173.707 1053.05 177.778C1056.01 181.849 1057.2 186.829 1056.41 191.798C1055.9 195.012 1054.57 198.047 1052.56 200.577C1048.95 205.103 1043.48 207.684 1037.8 207.684ZM1035.04 206.336C1041.33 207.334 1047.7 204.857 1051.67 199.872C1053.57 197.496 1054.82 194.643 1055.3 191.622C1056.04 186.95 1054.92 182.27 1052.14 178.444C1049.36 174.617 1045.26 172.101 1040.59 171.36C1035.3 170.522 1029.98 172.092 1025.99 175.667C1022.97 178.37 1020.96 182.067 1020.32 186.076C1019.58 190.748 1020.71 195.428 1023.49 199.255C1026.26 203.081 1030.37 205.596 1035.04 206.336Z" fill="#F66A0A"/>
<path d="M1037.73 179.951C1037.73 184.865 1033.74 188.848 1028.83 188.848C1033.74 188.848 1037.73 192.832 1037.73 197.744C1037.73 192.83 1041.71 188.848 1046.62 188.848C1041.71 188.849 1037.73 184.865 1037.73 179.951Z" fill="white"/>
<path d="M1006.92 174.703C1009.56 172.671 1010.26 168.984 1008.56 166.119L998.54 149.294C995.469 145.483 989.891 144.882 986.08 147.951C981.53 151.476 981.219 158.237 985.427 162.164L998.417 174.294C1000.77 176.492 1004.36 176.665 1006.92 174.703Z" fill="url(#paint21_linear_31_1364)"/>
<path d="M1003.58 213.69C1006.66 209.855 1006.56 204.662 1003.36 202.091L999.231 199.017C996.027 196.446 990.935 197.469 987.857 201.304C984.778 205.139 984.881 210.332 988.085 212.903L992.209 215.977C995.413 218.55 1000.51 217.525 1003.58 213.69Z" fill="url(#paint22_linear_31_1364)"/>
<path d="M1004.09 194.188C1007.16 190.353 1007.06 185.159 1003.86 182.588L999.734 179.515C996.53 176.944 991.438 177.966 988.36 181.802C985.281 185.637 985.384 190.83 988.588 193.401L992.712 196.475C995.914 199.048 1001.01 198.023 1004.09 194.188Z" fill="url(#paint23_linear_31_1364)"/>
<path d="M1080.05 176.001C1080.05 178.392 1081.3 181.832 1083.4 181.832C1083.4 181.832 1080.05 183.627 1080.05 186.468L1077.72 179.952L1080.05 176.001Z" fill="url(#paint24_linear_31_1364)"/>
<path d="M1083.24 142.715C1081.7 142.715 1080.05 145.416 1080.05 148.291V143.221C1080.05 143.221 1081.48 142.715 1083.24 142.715Z" fill="#CED2D5"/>
<path d="M1118.53 41.8059C1117.81 40.7864 1117.51 39.5223 1117.72 38.2889L1122.76 7.59763L1122.76 7.58737C1122.88 6.71497 1123.36 5.93152 1124.08 5.42177C1124.08 5.42006 1124.08 5.41835 1124.09 5.41493L1126.91 3.41696L1127.24 3.18604L1126.2 8.417L1167.53 66.7582L1163.31 96.6164L1166.15 97.3434L1164.91 98.2244C1162.55 99.8939 1159.29 99.3363 1157.62 96.9808L1118.53 41.8059Z" fill="#24292E"/>
<path d="M1171.2 65.9576L1166.94 96.0451C1166.7 97.7574 1164.49 98.2928 1163.49 96.8816L1123.09 39.8524C1122.37 38.8414 1122.07 37.5927 1122.24 36.3662L1126.85 3.83092C1126.97 2.96707 1128.09 2.69509 1128.59 3.4084L1170.32 62.3073C1171.07 63.3661 1171.38 64.673 1171.2 65.9576Z" fill="#606060"/>
<path d="M932.52 121.668C931.877 122.792 930.809 123.635 929.55 124.013L898.224 133.432L898.214 133.435C897.333 133.721 896.377 133.644 895.573 133.22C895.57 133.218 895.566 133.216 895.564 133.214L892.412 131.555L897.465 129.918L934.282 65.5985L964.458 55.8208L963.873 52.8923L965.264 53.6244C967.898 55.0117 968.827 58.2413 967.341 60.8396L932.52 121.668Z" fill="#24292E"/>
<path d="M931.882 62.6151L962.289 52.7621C964.02 52.2011 965.515 53.9715 964.624 55.5282L928.635 118.402C927.997 119.518 926.95 120.363 925.71 120.765L892.829 131.418C891.955 131.7 891.201 130.808 891.651 130.022L928.818 65.0886C929.487 63.922 930.582 63.0359 931.882 62.6151Z" fill="#606060"/>
<path d="M968.028 170.738C968.87 170.847 969.722 170.598 970.491 170.242C971.988 169.551 973.29 168.444 974.214 167.081C976.776 163.298 972.85 161.022 969.879 163.709C968.404 165.043 963.341 170.124 968.028 170.738Z" fill="url(#paint25_linear_31_1364)"/>
<path d="M921.776 211.937C913.78 213.49 903.65 204.749 912.22 194.298C918.322 186.824 918.496 191.956 918.166 198.11C918.312 201.964 918.902 203.572 924.401 204.359C929.901 205.146 929.771 210.384 921.776 211.937Z" fill="url(#paint26_linear_31_1364)"/>
<path d="M912.302 115.927C910.65 116.285 908.621 115.561 908.144 113.94C907.639 112.224 909.003 110.573 910.26 109.302C912.047 107.494 913.837 105.684 915.624 103.876C916.238 103.255 916.899 102.379 916.505 101.601C915.941 100.484 914.246 101.158 913.279 101.952C910.816 103.974 908.353 105.994 905.889 108.016L895.749 125.725L927.164 115.575L934.678 102.448C928.24 105.32 922.162 109.003 916.642 113.39C915.316 114.442 913.955 115.57 912.302 115.927Z" fill="url(#paint27_linear_31_1364)"/>
<path d="M935.279 97.6923C934.14 96.1049 934.562 93.8178 935.659 92.2013C936.757 90.5831 938.397 89.4353 939.87 88.1489C941.574 86.659 943.117 84.8886 943.871 82.7555C944.627 80.6206 944.477 78.0719 943.064 76.3031C942.643 75.778 942.097 75.2699 942.053 74.5994C941.984 73.5867 943.054 72.9179 943.974 72.4885C947.549 70.8156 951.126 69.1426 954.701 67.4697L960.832 56.7597L929.417 66.9103L905.888 108.016C908.351 105.994 910.814 103.974 913.277 101.952C914.244 101.158 915.939 100.486 916.504 101.601C916.897 102.379 916.235 103.257 915.623 103.876C913.835 105.684 912.046 107.494 910.258 109.302C909.001 110.573 907.638 112.225 908.142 113.939C908.619 115.563 910.648 116.285 912.301 115.927C913.953 115.57 915.315 114.442 916.639 113.39C922.159 109.003 928.236 105.32 934.675 102.448L936.808 98.7203C936.203 98.5476 935.647 98.202 935.279 97.6923Z" fill="white"/>
<path d="M943.974 72.4852C943.055 72.9145 941.984 73.5834 942.053 74.596C942.097 75.2666 942.645 75.7746 943.064 76.2998C944.477 78.0685 944.627 80.6173 943.871 82.7521C943.115 84.8869 941.574 86.6556 939.87 88.1456C938.399 89.4319 936.757 90.5814 935.659 92.1979C934.56 93.8162 934.14 96.1015 935.279 97.6889C935.645 98.2004 936.203 98.5442 936.81 98.717L954.701 67.4663C951.126 69.1393 947.549 70.8122 943.974 72.4852Z" fill="url(#paint28_linear_31_1364)"/>
<path d="M960.197 208.771C958.401 207.786 956.027 209.055 954.378 209.804C954.164 209.902 953.286 210.355 952.977 210.456C951.861 210.82 950.197 211.708 949.35 212.751C948.457 214.426 950.684 215.822 953.924 215.815C955.891 215.902 958.124 215.156 959.721 214.029C960.63 213.388 961.47 212.503 961.506 211.326C961.536 210.321 961.107 209.27 960.197 208.771Z" fill="url(#paint29_linear_31_1364)"/>
<path d="M1130.75 141.112C1130.14 140.021 1128.23 139.46 1125.79 139.978C1123.78 140.407 1121.92 141.399 1120.74 142.45C1119.79 143.105 1118.59 143.71 1117.53 144.301C1115.87 145.224 1114.18 146.157 1112.77 147.191C1111.62 148.031 1110.78 148.971 1111.17 149.805C1111.56 150.655 1112.99 150.965 1114.73 150.811C1116.48 150.655 1118.3 150.151 1119.98 149.614C1121.42 149.152 1122.85 148.615 1124.12 147.978C1127.48 146.297 1131.91 143.208 1130.75 141.112Z" fill="url(#paint30_linear_31_1364)"/>
<path d="M1139.23 52.55C1140.64 51.3253 1143 52.1994 1144.02 53.7577C1145.05 55.3161 1145.17 57.2764 1145.44 59.1238C1145.7 60.9712 1146.26 62.9624 1147.81 64.0161C1149.96 65.4923 1153.2 64.247 1154.46 61.9531C1155.72 59.6592 1155.36 56.7752 1154.31 54.3804C1153.26 51.9855 1151.59 49.926 1150.16 47.7313C1146.36 41.876 1144.3 34.9088 1144.27 27.9296L1130.65 8.70776L1126.23 39.7788L1138.02 56.4262C1138.03 56.2911 1138.04 56.156 1138.05 56.0208C1138.13 54.767 1138.28 53.3745 1139.23 52.55Z" fill="white"/>
<path d="M1167.91 65.8413L1168.45 62.0574L1161.09 51.6725C1161.22 55.9028 1161.78 60.3007 1164.71 63.2326C1165.66 64.1888 1166.86 64.974 1167.91 65.8413Z" fill="white"/>
<path d="M1164.71 63.2342C1161.77 60.3006 1161.22 55.9027 1161.09 51.6741L1144.27 27.9295C1144.3 34.9087 1146.36 41.8759 1150.16 47.7312C1151.59 49.9259 1153.26 51.9854 1154.31 54.3803C1155.36 56.7751 1155.72 59.6591 1154.46 61.953C1153.2 64.2469 1149.96 65.4922 1147.81 64.016C1146.26 62.9623 1145.7 60.9711 1145.44 59.1237C1145.17 57.2763 1145.05 55.316 1144.02 53.7576C1142.99 52.1993 1140.64 51.3252 1139.23 52.5499C1138.28 53.3744 1138.13 54.7669 1138.05 56.0207C1138.04 56.1559 1138.03 56.291 1138.02 56.4261L1158.49 85.3282C1159.35 83.0753 1160.73 81.0243 1162.55 79.442C1163.75 78.4037 1165.1 77.5604 1166.37 76.6179L1167.91 65.8412C1166.86 64.9739 1165.66 64.1888 1164.71 63.2342Z" fill="url(#paint31_linear_31_1364)"/>
<path d="M1158.49 85.3264L1164.02 93.1301L1166.37 76.6179C1165.1 77.5604 1163.75 78.402 1162.55 79.442C1160.73 81.0243 1159.35 83.0753 1158.49 85.3264Z" fill="white"/>
<path d="M915.334 106.114C914.395 106.757 913.423 107.441 912.888 108.445C912.352 109.449 912.415 110.871 913.334 111.541C914.179 112.157 915.406 111.912 916.259 111.31C917.113 110.708 917.71 109.817 918.399 109.032C919.872 107.355 921.788 106.144 923.645 104.904C924.335 104.444 925.028 103.97 925.565 103.339C926.102 102.708 926.471 101.892 926.396 101.066C926.095 97.706 923.62 100.227 922.614 101.153C920.53 103.07 917.674 104.507 915.334 106.114Z" fill="url(#paint32_linear_31_1364)"/>
<path d="M913.079 165.625C912.713 165.625 912.355 165.479 912.09 165.211L900.638 153.534C900.292 153.182 900.161 152.674 900.292 152.198C900.422 151.723 900.797 151.353 901.273 151.227L915.044 147.587C915.494 147.467 915.975 147.583 916.322 147.894C916.67 148.206 916.835 148.671 916.767 149.131L914.447 164.448C914.369 164.966 914.004 165.395 913.505 165.556C913.365 165.602 913.221 165.625 913.079 165.625ZM904.28 153.295L912.126 161.294L913.715 150.801L904.28 153.295Z" fill="url(#paint33_linear_31_1364)"/>
<path d="M1151.26 135.766C1150.98 135.766 1150.7 135.621 1150.55 135.371C1150.35 135.053 1150.38 134.643 1150.62 134.36L1160.01 123.649C1160.24 123.39 1160.6 123.295 1160.93 123.406L1173.88 127.826C1174.23 127.946 1174.46 128.281 1174.45 128.652C1174.44 129.023 1174.19 129.345 1173.84 129.446L1151.49 135.737C1151.42 135.756 1151.34 135.766 1151.26 135.766ZM1160.92 125.192L1153.79 133.327L1170.75 128.55L1160.92 125.192Z" fill="#82FDB8"/>
<path d="M954.573 41.1387C953.964 40.1791 954.249 38.9081 955.209 38.2992C959.042 35.8701 962.248 36.4449 964.824 36.9067C967.173 37.3275 969.029 37.6611 971.511 36.0891C973.993 34.517 974.484 32.697 975.106 30.3928C975.789 27.8663 976.637 24.7222 980.473 22.2932C984.306 19.8642 987.512 20.4389 990.088 20.9025C992.436 21.325 994.292 21.6569 996.773 20.0849C999.253 18.5128 999.746 16.6928 1000.37 14.3886C1001.05 11.8621 1001.9 8.71802 1005.73 6.28899C1009.56 3.85996 1012.77 4.43471 1015.35 4.89828C1017.69 5.3208 1019.55 5.65265 1022.03 4.08062C1022.99 3.47166 1024.26 3.75732 1024.87 4.71696C1025.48 5.6766 1025.19 6.94756 1024.23 7.55653C1020.4 9.98556 1017.2 9.4108 1014.62 8.94724C1012.27 8.52472 1010.41 8.19287 1007.93 9.76489C1005.45 11.3369 1004.96 13.157 1004.34 15.4611C1003.66 17.9877 1002.81 21.1317 998.976 23.5608C995.143 25.9898 991.937 25.415 989.361 24.9515C987.012 24.5289 985.156 24.1971 982.676 25.7691C980.194 27.3412 979.703 29.1612 979.08 31.4654C978.398 33.9919 977.549 37.136 973.714 39.565C969.881 41.994 966.675 41.4193 964.099 40.9574C961.75 40.5366 959.894 40.203 957.412 41.7751C956.453 42.3823 955.182 42.0984 954.573 41.1387Z" fill="#82FDB8"/>
<path d="M1033.92 56.2945C1036.31 59.0246 1037.92 43.6174 1031.42 43.9082C1024.93 44.199 1017.6 51.5819 1024.29 50.1073C1029.94 48.8603 1030.09 51.936 1033.92 56.2945Z" fill="#86E29B"/>
<path d="M1061.07 30.3996C1059.74 30.3996 1058.4 30.0455 1057.18 29.3049C1053.67 27.1547 1052.55 22.5463 1054.7 19.0294C1056.85 15.5141 1061.46 14.4023 1064.98 16.5525C1068.49 18.7027 1069.61 23.311 1067.46 26.8279C1066.05 29.1287 1063.59 30.3996 1061.07 30.3996ZM1061.09 17.5395C1059.27 17.5395 1057.5 18.4563 1056.48 20.1156C1054.93 22.6507 1055.73 25.9761 1058.27 27.5259C1060.81 29.0756 1064.13 28.2751 1065.68 25.7383C1067.23 23.2032 1066.43 19.8778 1063.89 18.328C1063.02 17.7943 1062.05 17.5395 1061.09 17.5395Z" fill="#FFB0EB"/>
<path d="M885.392 104.774C884.432 104.774 883.46 104.519 882.583 103.982C880.041 102.429 879.239 99.0967 880.792 96.5547C882.345 94.0128 885.677 93.2106 888.219 94.7638C889.451 95.5164 890.315 96.7036 890.653 98.1062C890.992 99.5089 890.763 100.959 890.01 102.191C888.992 103.856 887.213 104.774 885.392 104.774ZM885.407 95.4788C884.095 95.4788 882.812 96.1408 882.078 97.3416C881.536 98.2294 881.372 99.2746 881.615 100.286C881.859 101.296 882.482 102.153 883.37 102.696C885.202 103.816 887.603 103.236 888.724 101.404C889.266 100.516 889.43 99.4713 889.187 98.4603C888.943 97.4494 888.32 96.5924 887.432 96.0501C886.799 95.6635 886.1 95.4788 885.407 95.4788Z" fill="#FFD23D"/>
<path d="M1174.91 43.7285C1176.06 43.7285 1177 42.7926 1177 41.6381C1177 40.4837 1176.06 39.5478 1174.91 39.5478C1173.76 39.5478 1172.82 40.4837 1172.82 41.6381C1172.82 42.7926 1173.76 43.7285 1174.91 43.7285Z" fill="url(#paint34_linear_31_1364)"/>
<path d="M915.397 70.5726C916.551 70.5726 917.487 69.6368 917.487 68.4823C917.487 67.3278 916.551 66.392 915.397 66.392C914.243 66.392 913.307 67.3278 913.307 68.4823C913.307 69.6368 914.243 70.5726 915.397 70.5726Z" fill="url(#paint35_linear_31_1364)"/>
<path d="M934.677 177.922C935.831 177.922 936.767 176.986 936.767 175.832C936.767 174.677 935.831 173.742 934.677 173.742C933.522 173.742 932.586 174.677 932.586 175.832C932.586 176.986 933.522 177.922 934.677 177.922Z" fill="url(#paint36_linear_31_1364)"/>
<path d="M1016.88 41.6383C1018.04 41.6383 1018.97 40.7024 1018.97 39.548C1018.97 38.3935 1018.04 37.4576 1016.88 37.4576C1015.73 37.4576 1014.79 38.3935 1014.79 39.548C1014.79 40.7024 1015.73 41.6383 1016.88 41.6383Z" fill="url(#paint37_linear_31_1364)"/>
<path d="M1146.72 130.495C1147.88 130.495 1148.81 129.559 1148.81 128.404C1148.81 127.25 1147.88 126.314 1146.72 126.314C1145.57 126.314 1144.63 127.25 1144.63 128.404C1144.63 129.559 1145.57 130.495 1146.72 130.495Z" fill="url(#paint38_linear_31_1364)"/>
<path d="M1116.05 132.78C1115.88 132.78 1115.71 132.742 1115.56 132.667L1106.52 128.288C1106.1 128.088 1105.85 127.657 1105.88 127.197C1105.91 126.736 1106.21 126.341 1106.65 126.196L1119.1 122.037C1119.52 121.899 1119.98 122.013 1120.28 122.333C1120.59 122.653 1120.68 123.12 1120.51 123.529L1117.1 132.067C1116.99 132.357 1116.75 132.588 1116.46 132.701C1116.33 132.754 1116.19 132.78 1116.05 132.78ZM1110 127.462L1115.45 130.101L1117.51 124.956L1110 127.462Z" fill="url(#paint39_linear_31_1364)"/>
<path d="M1106.29 42.1703C1117.26 40.7745 1118.8 45.9917 1110.17 54.3993C1101.54 62.8068 1100.88 56.7582 1102.77 51.6538C1104.67 46.5494 1101.84 46.4981 1097.97 47.4663C1094.1 48.4345 1094.76 45.0971 1106.29 42.1703Z" fill="#75C4FD"/>
</g>
<defs>
<filter id="filter0_i_31_1364" x="0" y="-1.94" width="1224" height="227.94" filterUnits="userSpaceOnUse" color-interpolation-filters="sRGB">
<feFlood flood-opacity="0" result="BackgroundImageFix"/>
<feBlend mode="normal" in="SourceGraphic" in2="BackgroundImageFix" result="shape"/>
<feColorMatrix in="SourceAlpha" type="matrix" values="0 0 0 0 0 0 0 0 0 0 0 0 0 0 0 0 0 0 127 0" result="hardAlpha"/>
<feOffset dy="-14.94"/>
<feGaussianBlur stdDeviation="19"/>
<feComposite in2="hardAlpha" operator="arithmetic" k2="-1" k3="1"/>
<feColorMatrix type="matrix" values="0 0 0 0 0 0 0 0 0 0 0 0 0 0 0 0 0 0 0.14 0"/>
<feBlend mode="normal" in2="shape" result="effect1_innerShadow_31_1364"/>
</filter>
<filter id="filter1_d_31_1364" x="873" y="6.10352e-05" width="311" height="271.523" filterUnits="userSpaceOnUse" color-interpolation-filters="sRGB">
<feFlood flood-opacity="0" result="BackgroundImageFix"/>
<feColorMatrix in="SourceAlpha" type="matrix" values="0 0 0 0 0 0 0 0 0 0 0 0 0 0 0 0 0 0 127 0" result="hardAlpha"/>
<feOffset dy="4"/>
<feGaussianBlur stdDeviation="3.5"/>
<feComposite in2="hardAlpha" operator="out"/>
<feColorMatrix type="matrix" values="0 0 0 0 0 0 0 0 0 0 0 0 0 0 0 0 0 0 0.2 0"/>
<feBlend mode="normal" in2="BackgroundImageFix" result="effect1_dropShadow_31_1364"/>
<feBlend mode="normal" in="SourceGraphic" in2="effect1_dropShadow_31_1364" result="shape"/>
</filter>
<linearGradient id="paint0_linear_31_1364" x1="-125.97" y1="754" x2="660.227" y2="-82.0562" gradientUnits="userSpaceOnUse">
<stop stop-color="#655FE4"/>
<stop offset="0.505208" stop-color="#DB62E6"/>
<stop offset="1" stop-color="#C3A9F9"/>
</linearGradient>
<linearGradient id="paint1_linear_31_1364" x1="762.813" y1="96.8119" x2="781.037" y2="40.0784" gradientUnits="userSpaceOnUse">
<stop stop-color="#FFE566"/>
<stop offset="1" stop-color="#FFB0EB"/>
</linearGradient>
<linearGradient id="paint2_linear_31_1364" x1="244.985" y1="203.644" x2="254.264" y2="203.644" gradientUnits="userSpaceOnUse">
<stop stop-color="#75C4FD"/>
<stop offset="1" stop-color="#75C4FD"/>
</linearGradient>
<linearGradient id="paint3_linear_31_1364" x1="1067.15" y1="34.5069" x2="1162.01" y2="34.5069" gradientUnits="userSpaceOnUse">
<stop stop-color="#FFE466"/>
<stop offset="1" stop-color="#FFAFEA"/>
</linearGradient>
<linearGradient id="paint4_linear_31_1364" x1="1070.35" y1="140.046" x2="1112.78" y2="140.046" gradientUnits="userSpaceOnUse">
<stop stop-color="#FFE466"/>
<stop offset="1" stop-color="#FFAFEA"/>
</linearGradient>
<linearGradient id="paint5_linear_31_1364" x1="1067.15" y1="129.267" x2="1086.38" y2="123.347" gradientUnits="userSpaceOnUse">
<stop stop-color="#FFE466"/>
<stop offset="1" stop-color="#FFAFEA"/>
</linearGradient>
<linearGradient id="paint6_linear_31_1364" x1="1130.94" y1="89.3001" x2="1157.09" y2="89.3001" gradientUnits="userSpaceOnUse">
<stop stop-color="#FFE466"/>
<stop offset="1" stop-color="#FFAFEA"/>
</linearGradient>
<linearGradient id="paint7_linear_31_1364" x1="904.9" y1="131.414" x2="923.949" y2="131.414" gradientUnits="userSpaceOnUse">
<stop stop-color="#75C3FC"/>
<stop offset="0.0929" stop-color="#81C2F6"/>
<stop offset="1" stop-color="#F0B8BD"/>
</linearGradient>
<linearGradient id="paint8_linear_31_1364" x1="880.752" y1="141.747" x2="915.192" y2="141.747" gradientUnits="userSpaceOnUse">
<stop stop-color="#75C3FC"/>
<stop offset="0.0929" stop-color="#81C2F6"/>
<stop offset="1" stop-color="#F0B8BD"/>
</linearGradient>
<linearGradient id="paint9_linear_31_1364" x1="937.568" y1="66.7854" x2="1010.82" y2="66.7854" gradientUnits="userSpaceOnUse">
<stop stop-color="#75C3FC"/>
<stop offset="0.0929" stop-color="#81C2F6"/>
<stop offset="1" stop-color="#F0B8BD"/>
</linearGradient>
<linearGradient id="paint10_linear_31_1364" x1="1159.49" y1="122.042" x2="1104.39" y2="122.042" gradientUnits="userSpaceOnUse">
<stop stop-color="#FFE466"/>
<stop offset="1" stop-color="#FFAFEA"/>
</linearGradient>
<linearGradient id="paint11_linear_31_1364" x1="1010.52" y1="138.447" x2="953.255" y2="193.909" gradientUnits="userSpaceOnUse">
<stop stop-color="#FFE466"/>
<stop offset="1" stop-color="#FFAFEA"/>
</linearGradient>
<linearGradient id="paint12_linear_31_1364" x1="993.491" y1="197.437" x2="932.171" y2="197.437" gradientUnits="userSpaceOnUse">
<stop stop-color="#FFE466"/>
<stop offset="1" stop-color="#FFAFEA"/>
</linearGradient>
<linearGradient id="paint13_linear_31_1364" x1="1011.68" y1="119.004" x2="1011.68" y2="218.422" gradientUnits="userSpaceOnUse">
<stop stop-color="#BBC0C5"/>
<stop offset="0.5694" stop-color="#CFD3D6"/>
<stop offset="0.9989" stop-color="white" stop-opacity="0"/>
</linearGradient>
<linearGradient id="paint14_linear_31_1364" x1="1002.02" y1="129.666" x2="944.751" y2="185.128" gradientUnits="userSpaceOnUse">
<stop stop-color="#FFE466"/>
<stop offset="1" stop-color="#FFAFEA"/>
</linearGradient>
<linearGradient id="paint15_linear_31_1364" x1="1000.78" y1="129.562" x2="1071.52" y2="129.562" gradientUnits="userSpaceOnUse">
<stop stop-color="#FFE466"/>
<stop offset="1" stop-color="#FFAFEA"/>
</linearGradient>
<linearGradient id="paint16_linear_31_1364" x1="1000.78" y1="221.953" x2="1071.52" y2="221.953" gradientUnits="userSpaceOnUse">
<stop stop-color="#FFE466"/>
<stop offset="1" stop-color="#FFAFEA"/>
</linearGradient>
<linearGradient id="paint17_linear_31_1364" x1="1074.16" y1="120.903" x2="998.608" y2="120.903" gradientUnits="userSpaceOnUse">
<stop stop-color="#75C3FC"/>
<stop offset="0.0929" stop-color="#81C2F6"/>
<stop offset="1" stop-color="#F0B8BD"/>
</linearGradient>
<linearGradient id="paint18_linear_31_1364" x1="1074.16" y1="241.202" x2="998.608" y2="241.202" gradientUnits="userSpaceOnUse">
<stop stop-color="#75C3FC"/>
<stop offset="0.0929" stop-color="#81C2F6"/>
<stop offset="1" stop-color="#F0B8BD"/>
</linearGradient>
<linearGradient id="paint19_linear_31_1364" x1="1004.67" y1="171.265" x2="1056.29" y2="171.265" gradientUnits="userSpaceOnUse">
<stop stop-color="#FFE466"/>
<stop offset="1" stop-color="#FFAFEA"/>
</linearGradient>
<linearGradient id="paint20_linear_31_1364" x1="1020.83" y1="152.483" x2="1071.52" y2="152.483" gradientUnits="userSpaceOnUse">
<stop stop-color="#FFE466"/>
<stop offset="1" stop-color="#FFAFEA"/>
</linearGradient>
<linearGradient id="paint21_linear_31_1364" x1="995.972" y1="216.267" x2="995.972" y2="327.708" gradientUnits="userSpaceOnUse">
<stop stop-color="#CFD3D6"/>
<stop offset="0.6349" stop-color="#F3F4F5"/>
<stop offset="1" stop-color="white" stop-opacity="0"/>
</linearGradient>
<linearGradient id="paint22_linear_31_1364" x1="995.721" y1="216.267" x2="995.721" y2="327.708" gradientUnits="userSpaceOnUse">
<stop stop-color="#CFD3D6"/>
<stop offset="0.6349" stop-color="#F3F4F5"/>
<stop offset="1" stop-color="white" stop-opacity="0"/>
</linearGradient>
<linearGradient id="paint23_linear_31_1364" x1="996.223" y1="216.267" x2="996.223" y2="327.708" gradientUnits="userSpaceOnUse">
<stop stop-color="#CFD3D6"/>
<stop offset="0.6349" stop-color="#F3F4F5"/>
<stop offset="1" stop-color="white" stop-opacity="0"/>
</linearGradient>
<linearGradient id="paint24_linear_31_1364" x1="1080.56" y1="220.197" x2="1080.56" y2="309.795" gradientUnits="userSpaceOnUse">
<stop stop-color="#BBC0C5"/>
<stop offset="0.5694" stop-color="#CFD3D6"/>
<stop offset="0.9989" stop-color="white" stop-opacity="0"/>
</linearGradient>
<linearGradient id="paint25_linear_31_1364" x1="1005.43" y1="133.189" x2="948.163" y2="188.652" gradientUnits="userSpaceOnUse">
<stop stop-color="#FFE466"/>
<stop offset="1" stop-color="#FFAFEA"/>
</linearGradient>
<linearGradient id="paint26_linear_31_1364" x1="949.361" y1="201.351" x2="923.388" y2="201.351" gradientUnits="userSpaceOnUse">
<stop stop-color="#FFE466"/>
<stop offset="1" stop-color="#FFAFEA"/>
</linearGradient>
<linearGradient id="paint27_linear_31_1364" x1="895.749" y1="113.368" x2="934.677" y2="113.368" gradientUnits="userSpaceOnUse">
<stop stop-color="#75C3FC"/>
<stop offset="0.0929" stop-color="#81C2F6"/>
<stop offset="1" stop-color="#F0B8BD"/>
</linearGradient>
<linearGradient id="paint28_linear_31_1364" x1="934.605" y1="83.0934" x2="954.701" y2="83.0934" gradientUnits="userSpaceOnUse">
<stop stop-color="#75C3FC"/>
<stop offset="0.0929" stop-color="#81C2F6"/>
<stop offset="1" stop-color="#F0B8BD"/>
</linearGradient>
<linearGradient id="paint29_linear_31_1364" x1="961.508" y1="212.117" x2="949.152" y2="212.117" gradientUnits="userSpaceOnUse">
<stop stop-color="#FFE466"/>
<stop offset="1" stop-color="#FFAFEA"/>
</linearGradient>
<linearGradient id="paint30_linear_31_1364" x1="1131.23" y1="142.958" x2="1110.65" y2="147.668" gradientUnits="userSpaceOnUse">
<stop stop-color="#FFE466"/>
<stop offset="1" stop-color="#FFAFEA"/>
</linearGradient>
<linearGradient id="paint31_linear_31_1364" x1="1138.02" y1="56.6281" x2="1167.91" y2="56.6281" gradientUnits="userSpaceOnUse">
<stop stop-color="#FFE466"/>
<stop offset="1" stop-color="#FFAFEA"/>
</linearGradient>
<linearGradient id="paint32_linear_31_1364" x1="912.549" y1="105.636" x2="926.405" y2="105.636" gradientUnits="userSpaceOnUse">
<stop stop-color="#75C3FC"/>
<stop offset="0.0929" stop-color="#81C2F6"/>
<stop offset="1" stop-color="#F0B8BD"/>
</linearGradient>
<linearGradient id="paint33_linear_31_1364" x1="907.501" y1="148.47" x2="914.995" y2="164.982" gradientUnits="userSpaceOnUse">
<stop stop-color="#FFE466"/>
<stop offset="1" stop-color="#FFAFEA"/>
</linearGradient>
<linearGradient id="paint34_linear_31_1364" x1="1172.82" y1="41.6379" x2="1177" y2="41.6379" gradientUnits="userSpaceOnUse">
<stop stop-color="#75C3FC"/>
<stop offset="1" stop-color="#75C3FC"/>
</linearGradient>
<linearGradient id="paint35_linear_31_1364" x1="913.308" y1="68.4831" x2="917.488" y2="68.4831" gradientUnits="userSpaceOnUse">
<stop stop-color="#75C3FC"/>
<stop offset="1" stop-color="#75C3FC"/>
</linearGradient>
<linearGradient id="paint36_linear_31_1364" x1="932.587" y1="175.831" x2="936.767" y2="175.831" gradientUnits="userSpaceOnUse">
<stop stop-color="#75C3FC"/>
<stop offset="1" stop-color="#75C3FC"/>
</linearGradient>
<linearGradient id="paint37_linear_31_1364" x1="1014.79" y1="39.5479" x2="1018.97" y2="39.5479" gradientUnits="userSpaceOnUse">
<stop stop-color="#75C3FC"/>
<stop offset="1" stop-color="#75C3FC"/>
</linearGradient>
<linearGradient id="paint38_linear_31_1364" x1="1144.63" y1="128.403" x2="1148.81" y2="128.403" gradientUnits="userSpaceOnUse">
<stop stop-color="#75C3FC"/>
<stop offset="1" stop-color="#75C3FC"/>
</linearGradient>
<linearGradient id="paint39_linear_31_1364" x1="1105.88" y1="127.38" x2="1120.59" y2="127.38" gradientUnits="userSpaceOnUse">
<stop stop-color="#75C3FC"/>
<stop offset="0.0929" stop-color="#81C2F6"/>
<stop offset="1" stop-color="#F0B8BD"/>
</linearGradient>
</defs>
</svg>
