<svg width="1224" height="213" viewBox="0 0 1224 213" fill="none" xmlns="http://www.w3.org/2000/svg">
<g filter="url(#filter0_i_97_10959)">
<rect width="1224" height="213" rx="8" fill="url(#paint0_linear_97_10959)"/>
</g>
<path d="M32.4414 149.6H38.2414L47.0814 161.84L56.0014 149.6H61.8014V178H55.4014V160.52L47.1214 171.96L38.8014 160.48V178H32.4414V149.6ZM76.2052 178.44C73.1918 178.44 70.6585 177.493 68.6052 175.6C66.5785 173.68 65.5652 171.147 65.5652 168C65.5652 165.013 66.5652 162.533 68.5652 160.56C70.5652 158.56 73.0718 157.56 76.0852 157.56C78.8852 157.56 81.2452 158.413 83.1652 160.12C85.0852 161.827 86.0452 164.227 86.0452 167.32C86.0452 168.093 86.0052 168.8 85.9252 169.44H71.4052C71.5652 170.587 72.1118 171.467 73.0452 172.08C73.9785 172.667 75.0585 172.96 76.2852 172.96C77.3785 172.96 78.3518 172.747 79.2052 172.32C80.0585 171.867 80.6985 171.32 81.1252 170.68L85.6052 174.04C84.6452 175.4 83.3518 176.48 81.7252 177.28C80.0985 178.053 78.2585 178.44 76.2052 178.44ZM71.5652 165.48H80.0452C79.8052 164.493 79.2985 163.747 78.5252 163.24C77.7518 162.733 76.8852 162.48 75.9252 162.48C74.9118 162.48 73.9918 162.733 73.1652 163.24C72.3385 163.72 71.8052 164.467 71.5652 165.48ZM99.6605 178.24C97.3138 178.24 95.3805 177.6 93.8605 176.32C92.3671 175.013 91.6205 173.133 91.6205 170.68V163.24H87.6205V158H91.6205V152.44H97.6605V158H103.26V163.24H97.6605V169.44C97.6605 170.64 97.9271 171.507 98.4605 172.04C98.9938 172.573 99.8605 172.84 101.06 172.84C101.967 172.84 102.7 172.72 103.26 172.48V177.84C102.38 178.107 101.18 178.24 99.6605 178.24ZM114.884 178.44C112.298 178.44 110.098 177.413 108.284 175.36C106.498 173.307 105.604 170.853 105.604 168C105.604 165.147 106.498 162.693 108.284 160.64C110.098 158.587 112.298 157.56 114.884 157.56C117.178 157.56 118.991 158.373 120.324 160V158H126.364V178H120.324V176C118.991 177.627 117.178 178.44 114.884 178.44ZM112.924 171.56C113.778 172.493 114.884 172.96 116.244 172.96C117.604 172.96 118.698 172.493 119.524 171.56C120.378 170.627 120.804 169.44 120.804 168C120.804 166.56 120.378 165.373 119.524 164.44C118.698 163.507 117.604 163.04 116.244 163.04C114.884 163.04 113.778 163.507 112.924 164.44C112.098 165.373 111.684 166.56 111.684 168C111.684 169.44 112.098 170.627 112.924 171.56ZM131.387 149.6H137.187L146.027 161.84L154.947 149.6H160.747V178H154.347V160.52L146.067 171.96L137.747 160.48V178H131.387V149.6ZM173.79 178.44C171.204 178.44 169.004 177.413 167.19 175.36C165.404 173.307 164.51 170.853 164.51 168C164.51 165.147 165.404 162.693 167.19 160.64C169.004 158.587 171.204 157.56 173.79 157.56C176.084 157.56 177.897 158.373 179.23 160V158H185.27V178H179.23V176C177.897 177.627 176.084 178.44 173.79 178.44ZM171.83 171.56C172.684 172.493 173.79 172.96 175.15 172.96C176.51 172.96 177.604 172.493 178.43 171.56C179.284 170.627 179.71 169.44 179.71 168C179.71 166.56 179.284 165.373 178.43 164.44C177.604 163.507 176.51 163.04 175.15 163.04C173.79 163.04 172.684 163.507 171.83 164.44C171.004 165.373 170.59 166.56 170.59 168C170.59 169.44 171.004 170.627 171.83 171.56ZM197.122 178.44C193.415 178.44 190.642 177.24 188.802 174.84L192.802 171.2C193.762 172.587 195.202 173.28 197.122 173.28C198.348 173.28 198.962 172.907 198.962 172.16C198.962 171.813 198.802 171.533 198.482 171.32C198.162 171.08 197.508 170.84 196.522 170.6L195.202 170.28C193.308 169.827 191.868 169.027 190.882 167.88C189.922 166.733 189.468 165.347 189.522 163.72C189.575 161.88 190.308 160.4 191.722 159.28C193.162 158.133 194.988 157.56 197.202 157.56C200.295 157.56 202.642 158.667 204.242 160.88L200.322 164.12C199.468 163.053 198.415 162.52 197.162 162.52C196.068 162.52 195.522 162.867 195.522 163.56C195.522 164.2 196.082 164.68 197.202 165L199.042 165.48C200.962 165.987 202.415 166.747 203.402 167.76C204.415 168.747 204.922 170.093 204.922 171.8C204.922 173.693 204.162 175.28 202.642 176.56C201.148 177.813 199.308 178.44 197.122 178.44ZM222.159 178L214.719 169.08V178H208.679V148H214.719V165.16L220.559 158H227.719L220.359 167.04L229.479 178H222.159ZM248.304 178.48C246.064 178.48 244.024 178.04 242.184 177.16C240.371 176.253 238.904 175 237.784 173.4L242.664 169.28C243.358 170.267 244.238 171.053 245.304 171.64C246.398 172.227 247.478 172.52 248.544 172.52C249.584 172.52 250.411 172.307 251.024 171.88C251.664 171.427 251.984 170.853 251.984 170.16C251.984 169.44 251.678 168.813 251.064 168.28C250.451 167.747 249.438 167.24 248.024 166.76L246.024 166.08C241.251 164.48 238.864 161.747 238.864 157.88C238.864 155.187 239.771 153.053 241.584 151.48C243.424 149.907 245.784 149.12 248.664 149.12C252.344 149.12 255.398 150.427 257.824 153.04L253.664 157.44C252.358 155.867 250.718 155.08 248.744 155.08C247.811 155.08 246.998 155.267 246.304 155.64C245.638 156.013 245.304 156.547 245.304 157.24C245.304 157.96 245.624 158.547 246.264 159C246.904 159.427 248.051 159.933 249.704 160.52L251.704 161.24C256.238 162.867 258.491 165.693 258.464 169.72C258.464 172.307 257.504 174.413 255.584 176.04C253.691 177.667 251.264 178.48 248.304 178.48ZM262.039 178V158H268.079V160.04C269.225 158.387 271.079 157.56 273.639 157.56C276.065 157.56 277.959 158.373 279.319 160C280.705 161.627 281.399 163.773 281.399 166.44V178H275.359V167.48C275.359 164.52 274.279 163.04 272.119 163.04C270.919 163.04 269.945 163.48 269.199 164.36C268.452 165.24 268.079 166.547 268.079 168.28V178H262.039ZM294.181 178.44C291.594 178.44 289.394 177.413 287.581 175.36C285.794 173.307 284.901 170.853 284.901 168C284.901 165.147 285.794 162.693 287.581 160.64C289.394 158.587 291.594 157.56 294.181 157.56C296.474 157.56 298.288 158.373 299.621 160V158H305.661V178H299.621V176C298.288 177.627 296.474 178.44 294.181 178.44ZM292.221 171.56C293.074 172.493 294.181 172.96 295.541 172.96C296.901 172.96 297.994 172.493 298.821 171.56C299.674 170.627 300.101 169.44 300.101 168C300.101 166.56 299.674 165.373 298.821 164.44C297.994 163.507 296.901 163.04 295.541 163.04C294.181 163.04 293.074 163.507 292.221 164.44C291.394 165.373 290.981 166.56 290.981 168C290.981 169.44 291.394 170.627 292.221 171.56ZM316.672 186.36H310.632V158H316.672V160C317.099 159.36 317.806 158.8 318.792 158.32C319.779 157.813 320.886 157.56 322.112 157.56C324.699 157.56 326.886 158.587 328.672 160.64C330.486 162.693 331.392 165.147 331.392 168C331.392 170.853 330.486 173.307 328.672 175.36C326.886 177.413 324.699 178.44 322.112 178.44C320.886 178.44 319.779 178.2 318.792 177.72C317.806 177.213 317.099 176.64 316.672 176V186.36ZM317.432 171.56C318.286 172.493 319.392 172.96 320.752 172.96C322.112 172.96 323.206 172.493 324.032 171.56C324.886 170.627 325.312 169.44 325.312 168C325.312 166.56 324.886 165.373 324.032 164.44C323.206 163.507 322.112 163.04 320.752 163.04C319.392 163.04 318.286 163.507 317.432 164.44C316.606 165.373 316.192 166.56 316.192 168C316.192 169.44 316.606 170.627 317.432 171.56ZM341.848 178.44C338.142 178.44 335.368 177.24 333.528 174.84L337.528 171.2C338.488 172.587 339.928 173.28 341.848 173.28C343.075 173.28 343.688 172.907 343.688 172.16C343.688 171.813 343.528 171.533 343.208 171.32C342.888 171.08 342.235 170.84 341.248 170.6L339.928 170.28C338.035 169.827 336.595 169.027 335.608 167.88C334.648 166.733 334.195 165.347 334.248 163.72C334.302 161.88 335.035 160.4 336.448 159.28C337.888 158.133 339.715 157.56 341.928 157.56C345.022 157.56 347.368 158.667 348.968 160.88L345.048 164.12C344.195 163.053 343.142 162.52 341.888 162.52C340.795 162.52 340.248 162.867 340.248 163.56C340.248 164.2 340.808 164.68 341.928 165L343.768 165.48C345.688 165.987 347.142 166.747 348.128 167.76C349.142 168.747 349.648 170.093 349.648 171.8C349.648 173.693 348.888 175.28 347.368 176.56C345.875 177.813 344.035 178.44 341.848 178.44ZM362.91 178V149.6H380.91V155.68H369.27V160.76H378.51V166.84H369.27V171.92H380.91V178H362.91ZM398.562 178L394.322 172.56L390.082 178H382.842L390.522 168.32L382.922 158H390.042L394.282 163.84L398.522 158H405.722L398.122 168.32L405.762 178H398.562ZM414.368 186.36H408.328V158H414.368V160C414.794 159.36 415.501 158.8 416.488 158.32C417.474 157.813 418.581 157.56 419.808 157.56C422.394 157.56 424.581 158.587 426.368 160.64C428.181 162.693 429.088 165.147 429.088 168C429.088 170.853 428.181 173.307 426.368 175.36C424.581 177.413 422.394 178.44 419.808 178.44C418.581 178.44 417.474 178.2 416.488 177.72C415.501 177.213 414.794 176.64 414.368 176V186.36ZM415.128 171.56C415.981 172.493 417.088 172.96 418.448 172.96C419.808 172.96 420.901 172.493 421.728 171.56C422.581 170.627 423.008 169.44 423.008 168C423.008 166.56 422.581 165.373 421.728 164.44C420.901 163.507 419.808 163.04 418.448 163.04C417.088 163.04 415.981 163.507 415.128 164.44C414.301 165.373 413.888 166.56 413.888 168C413.888 169.44 414.301 170.627 415.128 171.56ZM432.859 178V148H438.899V178H432.859ZM460.595 175.44C458.541 177.44 456.061 178.44 453.155 178.44C450.248 178.44 447.768 177.44 445.715 175.44C443.661 173.413 442.635 170.933 442.635 168C442.635 165.067 443.661 162.6 445.715 160.6C447.768 158.573 450.248 157.56 453.155 157.56C456.061 157.56 458.541 158.573 460.595 160.6C462.648 162.6 463.675 165.067 463.675 168C463.675 170.933 462.648 173.413 460.595 175.44ZM449.955 171.48C450.808 172.36 451.875 172.8 453.155 172.8C454.435 172.8 455.488 172.36 456.315 171.48C457.168 170.6 457.595 169.44 457.595 168C457.595 166.56 457.168 165.4 456.315 164.52C455.488 163.64 454.435 163.2 453.155 163.2C451.875 163.2 450.808 163.64 449.955 164.52C449.128 165.4 448.715 166.56 448.715 168C448.715 169.44 449.128 170.6 449.955 171.48ZM467.39 178V158H473.43V161C473.75 160.093 474.35 159.333 475.23 158.72C476.11 158.08 477.097 157.76 478.19 157.76C478.883 157.76 479.537 157.84 480.15 158V164.12C479.217 163.8 478.323 163.64 477.47 163.64C476.19 163.64 475.19 164.093 474.47 165C473.777 165.88 473.43 167.053 473.43 168.52V178H467.39ZM492.26 178.44C489.247 178.44 486.713 177.493 484.66 175.6C482.633 173.68 481.62 171.147 481.62 168C481.62 165.013 482.62 162.533 484.62 160.56C486.62 158.56 489.127 157.56 492.14 157.56C494.94 157.56 497.3 158.413 499.22 160.12C501.14 161.827 502.1 164.227 502.1 167.32C502.1 168.093 502.06 168.8 501.98 169.44H487.46C487.62 170.587 488.167 171.467 489.1 172.08C490.033 172.667 491.113 172.96 492.34 172.96C493.433 172.96 494.407 172.747 495.26 172.32C496.113 171.867 496.753 171.32 497.18 170.68L501.66 174.04C500.7 175.4 499.407 176.48 497.78 177.28C496.153 178.053 494.313 178.44 492.26 178.44ZM487.62 165.48H496.1C495.86 164.493 495.353 163.747 494.58 163.24C493.807 162.733 492.94 162.48 491.98 162.48C490.967 162.48 490.047 162.733 489.22 163.24C488.393 163.72 487.86 164.467 487.62 165.48ZM505.906 178V158H511.946V161C512.266 160.093 512.866 159.333 513.746 158.72C514.626 158.08 515.612 157.76 516.706 157.76C517.399 157.76 518.052 157.84 518.666 158V164.12C517.732 163.8 516.839 163.64 515.986 163.64C514.706 163.64 513.706 164.093 512.986 165C512.292 165.88 511.946 167.053 511.946 168.52V178H505.906Z" fill="white"/>
<path d="M768.67 162.001C768.068 163.712 766.164 164.603 764.453 164.001C757.585 161.567 755.151 156.942 753.175 153.231C751.391 149.858 749.97 147.184 745.535 145.593C741.101 144.027 738.306 145.184 734.787 146.678C730.931 148.316 726.112 150.34 719.243 147.906C712.375 145.473 709.941 140.847 707.989 137.137C706.206 133.763 704.784 131.089 700.35 129.499C695.916 127.933 693.12 129.089 689.602 130.583C685.746 132.221 680.926 134.269 674.082 131.812C667.214 129.378 664.78 124.752 662.828 121.042C661.044 117.669 659.623 114.994 655.188 113.404C653.477 112.802 652.586 110.899 653.188 109.188C653.791 107.477 655.694 106.586 657.405 107.188C664.274 109.622 666.708 114.248 668.66 117.958C670.443 121.331 671.865 124.005 676.299 125.596C680.733 127.162 683.529 126.005 687.047 124.511C690.903 122.873 695.723 120.849 702.567 123.283C709.435 125.716 711.869 130.342 713.821 134.053C715.604 137.426 717.026 140.1 721.461 141.69C725.895 143.256 728.69 142.1 732.209 140.606C736.064 138.968 740.884 136.944 747.752 139.377C754.621 141.811 757.055 146.437 759.031 150.147C760.814 153.52 762.236 156.195 766.67 157.785C768.381 158.387 769.273 160.266 768.67 162.001Z" fill="#83FEB9"/>
<path d="M425.821 89.3452C430.298 103.248 460.866 48.9866 436.432 39.6759C411.997 30.3653 373.158 45.8529 400.166 51.1193C423.006 55.5601 418.671 67.1556 425.821 89.3452Z" fill="#B9E0FF"/>
<path d="M781.352 89.5073C780.751 89.5073 780.151 89.3572 779.626 89.0946L745.028 71.1617C743.789 70.5239 743.039 69.2859 743.001 67.8978C742.964 66.5097 743.677 65.2341 744.878 64.5213L797.225 33.5326C798.613 32.7073 800.339 32.8573 801.578 33.8703C802.816 34.8832 803.266 36.5715 802.703 38.0721L784.879 86.9937C784.504 88.0066 783.716 88.832 782.703 89.2071C782.29 89.4322 781.802 89.5073 781.352 89.5073ZM754.559 67.5601L779.288 80.3908L792.009 45.4629L754.559 67.5601Z" fill="url(#paint1_linear_97_10959)"/>
<path d="M146.126 107.241C132.829 107.241 122 96.4144 122 83.1206C122 69.8269 132.829 59 146.126 59C159.423 59 170.252 69.8269 170.252 83.1206C170.252 96.4144 159.423 107.241 146.126 107.241ZM146.126 65.0302C136.147 65.0302 128.031 73.1435 128.031 83.1206C128.031 93.0978 136.147 101.211 146.126 101.211C156.105 101.211 164.22 93.0978 164.22 83.1206C164.22 73.1435 156.105 65.0302 146.126 65.0302Z" fill="#FFD33D"/>
<path d="M28.5995 50.1923C19.991 50.1923 13 43.2028 13 34.5961C13 25.9895 19.991 19 28.5995 19C37.2081 19 44.1991 25.9895 44.1991 34.5961C44.1991 43.2028 37.1807 50.1923 28.5995 50.1923ZM28.5995 24.0434C22.7874 24.0434 18.0445 28.7853 18.0445 34.5961C18.0445 40.407 22.7874 45.1489 28.5995 45.1489C34.4117 45.1489 39.1546 40.407 39.1546 34.5961C39.1546 28.7853 34.4117 24.0434 28.5995 24.0434Z" fill="#86E29B"/>
<path d="M249.633 195.264C252.192 195.264 254.267 193.191 254.267 190.632C254.267 188.074 252.192 186 249.633 186C247.074 186 245 188.074 245 190.632C245 193.191 247.074 195.264 249.633 195.264Z" fill="url(#paint2_linear_97_10959)"/>
<defs>
<filter id="filter0_i_97_10959" x="0" y="-14.94" width="1224" height="227.94" filterUnits="userSpaceOnUse" color-interpolation-filters="sRGB">
<feFlood flood-opacity="0" result="BackgroundImageFix"/>
<feBlend mode="normal" in="SourceGraphic" in2="BackgroundImageFix" result="shape"/>
<feColorMatrix in="SourceAlpha" type="matrix" values="0 0 0 0 0 0 0 0 0 0 0 0 0 0 0 0 0 0 127 0" result="hardAlpha"/>
<feOffset dy="-14.94"/>
<feGaussianBlur stdDeviation="19"/>
<feComposite in2="hardAlpha" operator="arithmetic" k2="-1" k3="1"/>
<feColorMatrix type="matrix" values="0 0 0 0 0 0 0 0 0 0 0 0 0 0 0 0 0 0 0.14 0"/>
<feBlend mode="normal" in2="shape" result="effect1_innerShadow_97_10959"/>
</filter>
<linearGradient id="paint0_linear_97_10959" x1="-125.97" y1="741" x2="660.227" y2="-95.0562" gradientUnits="userSpaceOnUse">
<stop stop-color="#655FE4"/>
<stop offset="0.505208" stop-color="#DB62E6"/>
<stop offset="1" stop-color="#C3A9F9"/>
</linearGradient>
<linearGradient id="paint1_linear_97_10959" x1="762.813" y1="83.8119" x2="781.037" y2="27.0784" gradientUnits="userSpaceOnUse">
<stop stop-color="#FFE566"/>
<stop offset="1" stop-color="#FFB0EB"/>
</linearGradient>
<linearGradient id="paint2_linear_97_10959" x1="244.985" y1="190.644" x2="254.264" y2="190.644" gradientUnits="userSpaceOnUse">
<stop stop-color="#75C4FD"/>
<stop offset="1" stop-color="#75C4FD"/>
</linearGradient>
</defs>
</svg>
